<svg width="535" height="177" viewBox="0 0 535 177" fill="none" xmlns="http://www.w3.org/2000/svg">
<path d="M33.0039 79.5069C40.7825 80.6181 46.8943 85.1424 51.3393 93.0798C55.943 101.017 58.2448 111.336 58.2448 124.036C58.2448 140.228 55.6255 152.293 50.3868 160.23C45.3069 168.168 38.0838 172.136 28.7177 172.136H0.619339V171.422C3.4768 169.676 4.90553 165.31 4.90553 158.325V19.2621C4.90553 12.2772 3.4768 7.91161 0.619339 6.16539V5.45102H27.7652C36.3376 5.45102 43.0844 8.78472 48.0056 15.4521C53.0855 22.1195 55.6255 31.0094 55.6255 42.1218C55.6255 51.6466 53.7999 59.9015 50.1487 66.8864C46.6562 73.8713 40.9413 78.0781 33.0039 79.5069ZM24.4315 79.745H25.384C29.8289 79.745 32.9245 76.8875 34.6707 71.1726C36.5757 65.4577 37.5282 55.7741 37.5282 42.1218C37.5282 31.1682 36.7345 22.6752 35.147 16.6427C33.5595 10.4516 31.1783 7.35599 28.0033 7.35599C25.6221 7.35599 24.4315 9.02285 24.4315 12.3566V79.745ZM28.4796 170.231C35.3057 170.231 38.7188 154.515 38.7188 123.083C38.7188 112.606 38.4013 104.43 37.7663 98.5566C37.1313 92.6829 35.8614 88.3174 33.9564 85.4599C32.0514 82.4437 29.1939 80.9356 25.384 80.9356H24.4315V165.231C24.4315 168.564 25.7809 170.231 28.4796 170.231ZM113.461 157.373C114.255 164.993 116.16 169.676 119.176 171.422V172.136H87.5059V171.422C89.8871 170.469 91.5539 169.041 92.5064 167.136C93.4589 165.231 93.9351 162.373 93.9351 158.563C93.9351 157.452 93.7764 154.674 93.4589 150.229L89.1727 105.7H73.2186L70.123 137.132C69.6467 141.419 69.4086 145.387 69.4086 149.038C69.4086 155.547 70.2024 160.627 71.7898 164.278C73.3773 167.929 75.9173 170.311 79.4097 171.422V172.136H57.7406V171.422C59.6456 170.311 61.4712 166.659 63.2174 160.468C65.1224 154.118 66.5512 146.34 67.5036 137.132L78.6954 27.8345C79.0129 23.707 79.1716 20.6908 79.1716 18.7858C79.1716 15.9284 79.0129 12.9122 78.6954 9.73721L78.2191 5.45102H97.0307L113.461 157.373ZM81.3147 23.072L73.4567 103.795H88.9346L81.3147 23.072ZM147.734 173.803C139.955 173.803 134.161 171.501 130.351 166.898C126.7 162.294 124.874 155.468 124.874 146.419V19.2621C124.874 12.2772 123.446 7.91161 120.588 6.16539V5.45102H148.686V6.16539C145.829 7.91161 144.4 12.2772 144.4 19.2621V156.42C144.4 161.183 145.035 164.675 146.305 166.898C147.575 168.961 149.718 169.993 152.734 169.993C156.227 169.993 158.846 168.406 160.592 165.231C162.339 162.056 163.212 157.452 163.212 151.42V32.5969C163.212 24.342 162.497 18.3096 161.069 14.4996C159.64 10.5309 157.418 7.75286 154.401 6.16539V5.45102H171.784V6.16539C169.72 7.75286 168.133 10.5309 167.022 14.4996C166.069 18.3096 165.593 24.342 165.593 32.5969V151.42C165.593 159.198 164.164 164.913 161.307 168.564C158.608 172.057 154.084 173.803 147.734 173.803ZM214.774 5.45102H235.491V6.16539C231.046 8.8641 227.712 20.2146 225.49 40.2168L213.346 172.136H198.344L179.294 20.2146C178.501 12.5947 176.596 7.91161 173.579 6.16539V5.45102H206.678V6.16539C204.138 6.95912 202.313 8.2291 201.202 9.97533C200.09 11.7216 199.535 14.2615 199.535 17.5952C199.535 19.6589 199.614 21.3258 199.773 22.5958L213.822 142.847L223.109 40.2168C223.585 35.9306 223.823 32.0413 223.823 28.5488C223.823 15.5315 220.807 8.07035 214.774 6.16539V5.45102ZM322.472 176.899C304.693 176.899 288.977 172.692 275.324 164.278C263.418 156.976 253.655 146.657 246.035 133.322C238.415 119.829 234.606 104.986 234.606 88.7936C234.606 72.6013 238.415 57.8378 246.035 44.503C253.655 31.0094 263.418 20.6114 275.324 13.309C288.977 4.8954 304.693 0.688586 322.472 0.688586C340.252 0.688586 355.968 4.8954 369.621 13.309C381.527 20.6114 391.29 31.0094 398.91 44.503C406.529 57.8378 410.339 72.6013 410.339 88.7936C410.339 104.986 406.529 119.829 398.91 133.322C391.29 146.657 381.527 156.976 369.621 164.278C355.968 172.692 340.252 176.899 322.472 176.899ZM322.472 174.517C339.3 174.517 353.349 169.279 364.62 158.801C372.081 151.817 377.955 142.212 382.241 129.989C386.686 117.765 388.908 104.033 388.908 88.7936C388.908 73.5538 386.686 59.8222 382.241 47.5986C377.955 35.375 372.081 25.7707 364.62 18.7858C353.349 8.30848 339.3 3.0698 322.472 3.0698C305.645 3.0698 291.596 8.30848 280.325 18.7858C272.864 25.7707 266.911 35.375 262.466 47.5986C258.18 59.8222 256.036 73.5538 256.036 88.7936C256.036 104.033 258.18 117.765 262.466 129.989C266.911 142.212 272.864 151.817 280.325 158.801C291.596 169.279 305.645 174.517 322.472 174.517ZM462.088 176.899C461.294 175.152 460.024 173.882 458.278 173.089C456.532 172.454 454.071 172.136 450.896 172.136H417.797V171.422C420.655 169.676 422.084 165.31 422.084 158.325V19.2621C422.084 12.2772 420.655 7.91161 417.797 6.16539V5.45102H445.896V6.16539C443.038 7.91161 441.61 12.2772 441.61 19.2621V165.231C441.61 168.564 442.959 170.231 445.658 170.231C446.928 170.231 447.96 169.755 448.753 168.803C449.547 167.691 450.499 165.548 451.611 162.373C453.674 156.182 455.976 147.927 458.516 137.609C461.056 127.29 463.12 117.686 464.707 108.796H465.422L462.564 176.899H462.088ZM527.761 153.563C528.873 159.119 529.904 163.326 530.857 166.183C531.809 168.882 533 170.628 534.429 171.422V172.136H505.616V171.422C507.838 169.993 508.95 167.294 508.95 163.326C508.95 161.421 508.553 157.928 507.759 152.848L496.567 86.4124L493.234 95.2229V158.325C493.234 165.31 494.662 169.676 497.52 171.422V172.136H469.421V171.422C472.279 169.676 473.708 165.31 473.708 158.325V19.2621C473.708 12.2772 472.279 7.91161 469.421 6.16539V5.45102H497.52V6.16539C494.662 7.91161 493.234 12.2772 493.234 19.2621V89.7461L510.14 43.5505C513.156 35.1369 514.665 27.8345 514.665 21.6433C514.665 17.3571 513.95 13.944 512.521 11.4041C511.093 8.70535 509.188 6.95912 506.807 6.16539V5.45102H532.524V6.16539C526.968 9.81659 519.983 22.9927 511.569 45.6936L509.188 51.8848L527.761 153.563Z" fill="white"/>
</svg>
