<svg width="539" height="151" viewBox="0 0 539 151" fill="none" xmlns="http://www.w3.org/2000/svg">
<path fill-rule="evenodd" clip-rule="evenodd" d="M22.3206 135.43V5H63.3414C72.3763 5 79.5618 8.09248 84.8978 14.2774C88.1563 18.0118 90.431 22.7409 91.722 28.4648C92.5693 32.2209 92.9929 36.4054 92.9929 41.0183V99.8664C92.9929 104.43 92.5693 108.565 91.722 112.271C90.419 117.972 88.114 122.66 84.8069 126.334C82.84 128.544 80.6394 130.352 78.2053 131.756C73.9609 134.205 69.0063 135.43 63.3414 135.43H22.3206ZM91.722 125.455C90.7743 126.95 89.7124 128.357 88.5317 129.67C86.1947 132.294 83.5783 134.429 80.707 136.086C75.6613 138.998 69.8285 140.43 63.3414 140.43H17.3206V0H63.3414C73.6524 0 82.2824 3.59742 88.6751 11.0014C89.7984 12.29 90.8127 13.6647 91.722 15.1214V0H208.747L216.655 42.2772L224.444 0H342.208V97.9564C342.208 101.347 342.734 103.085 343.162 103.83C343.196 103.872 343.268 103.937 343.46 104.019C343.778 104.154 344.427 104.326 345.576 104.326C346.712 104.326 347.321 104.15 347.593 104.029C347.64 104.008 347.677 103.989 347.706 103.973C347.803 103.917 347.814 103.882 347.825 103.863L347.854 103.814L347.885 103.765C348.37 102.989 348.944 101.217 348.944 97.7745V0H430.164C438.832 0 446.284 3.00689 452.137 9.07942C455.337 12.3988 457.634 16.1955 459.057 20.4044C460.779 16.8308 463.009 13.669 465.79 10.9653C467.865 8.94772 470.159 7.22531 472.656 5.78442C479.502 1.83427 487.877 0 497.471 0C510.712 0 521.477 3.22057 528.565 10.7424C535.637 18.1228 538.672 29.0578 538.672 42.4736V140.43H501.294V137.579C497.389 139.508 492.85 140.43 487.83 140.43C477.831 140.43 469.5 136.581 463.3 128.939L463.291 128.928L463.282 128.917C462.387 127.8 461.565 126.62 460.814 125.379V140.43H422.163V94.2272C422.163 91.3332 421.592 89.7656 421.042 88.9648L420.991 88.8916L420.944 88.8166C420.897 88.7429 420.815 88.6253 420.485 88.4859C420.375 88.4392 420.236 88.3907 420.066 88.3451V140.43H381.324V123.393C380.09 125.435 378.667 127.321 377.043 129.04C374.858 131.353 372.383 133.29 369.641 134.872C363.046 138.678 354.911 140.43 345.576 140.43C332.36 140.43 321.549 136.918 314.109 129.04C312.485 127.321 311.061 125.435 309.828 123.393V140.43H239.979V102.576L232.946 140.43H197.116L193.132 114.29V140.43H91.722V125.455ZM156.571 135.43V110.508H125.464V81.7663H152.66V57.0265H125.464V29.8308H157.116V5H96.722V135.43H156.571ZM155.755 34.8308H130.464V52.0265H155.755V34.8308ZM155.755 86.7663H130.464V105.508H155.755V86.7663ZM160.755 135.43H188.132V48.2948L201.412 135.43H228.789L244.979 48.2948V135.43H272.357V5H228.607L216.692 69.6693L204.595 5H160.755V135.43ZM304.828 5H276.086V135.43H304.828V5ZM309.828 109.749C313.659 126.87 325.575 135.43 345.576 135.43C354.303 135.43 361.491 133.8 367.14 130.54C374.436 126.329 379.164 119.399 381.324 109.749C382.232 105.693 382.686 101.155 382.686 96.1373V5H353.944V97.7745C353.944 101.595 353.337 104.475 352.125 106.415C351.656 107.205 351.016 107.834 350.205 108.303C349.024 108.985 347.481 109.326 345.576 109.326C342.362 109.326 340.149 108.386 338.936 106.506C337.784 104.626 337.208 101.777 337.208 97.9564V5H308.466V96.1373C308.466 101.155 308.92 105.693 309.828 109.749ZM386.324 135.43H415.066V83.1307H418.067C418.78 83.1307 419.446 83.1732 420.066 83.2582C422.452 83.5857 424.151 84.5437 425.162 86.1322C426.496 88.0726 427.163 90.7709 427.163 94.2272V135.43H455.814V93.8634C455.814 89.6896 455.36 86.1348 454.452 83.1989C453.804 81.1019 452.923 79.3207 451.812 77.8552C450.402 75.9644 448.602 74.3615 446.413 73.0465C444.46 71.8735 442.197 70.9297 439.624 70.215C442.201 69.499 444.468 68.5597 446.423 67.3973C448.608 66.0987 450.404 64.5215 451.812 62.6657C452.923 61.175 453.804 59.3738 454.452 57.262C455.36 54.3055 455.814 50.7404 455.814 46.5666V31.6499C455.814 31.156 455.804 30.6676 455.784 30.1847C455.493 23.1379 453.077 17.2594 448.537 12.5493C443.686 7.51643 437.562 5 430.164 5H386.324V135.43ZM454.452 67.2947C453.46 68.374 452.366 69.3516 451.179 70.2326C452.367 71.1235 453.46 72.1127 454.452 73.2051V67.2947ZM459.452 97.7745C459.452 102.915 459.906 107.543 460.814 111.658C462.069 117.349 464.192 122.059 467.183 125.789C472.398 132.216 479.28 135.43 487.83 135.43C492.684 135.43 496.783 134.465 500.129 132.535C500.528 132.304 500.916 132.06 501.294 131.802C503.248 130.469 504.915 128.767 506.294 126.698V135.43H533.672V68.7597H495.107V91.4986H504.93V97.7745C504.93 101.595 504.323 104.445 503.111 106.324C502.655 107.068 502.038 107.664 501.26 108.113C500.071 108.8 498.505 109.144 496.562 109.144C493.348 109.144 491.135 108.204 489.922 106.324C488.77 104.445 488.194 101.595 488.194 97.7745V42.4736C488.194 37.3221 489.622 33.9212 492.479 32.271C493.826 31.4931 495.49 31.1042 497.471 31.1042C503.717 31.1042 506.84 34.894 506.84 42.4736V60.2099H533.672V42.4736C533.672 29.6792 530.761 20.2502 524.94 14.1865C519.179 8.06216 510.023 5 497.471 5C488.506 5 481.067 6.70559 475.155 10.1168C472.991 11.3659 471.031 12.8437 469.275 14.5503C465.154 18.5574 462.329 23.9215 460.801 30.6426C460.726 30.9751 460.654 31.3108 460.584 31.6499C459.829 35.348 459.452 39.441 459.452 43.9289V97.7745ZM494.148 103.648C494.181 103.691 494.254 103.755 494.446 103.837C494.764 103.972 495.413 104.144 496.562 104.144C497.714 104.144 498.344 103.971 498.632 103.847C498.69 103.822 498.732 103.8 498.762 103.782C498.802 103.759 498.82 103.744 498.825 103.74C498.828 103.737 498.831 103.735 498.834 103.731C498.838 103.727 498.842 103.721 498.848 103.711L498.878 103.662L498.909 103.614C499.349 102.932 499.93 101.236 499.93 97.7745V96.4986H493.194V97.7745C493.194 101.165 493.72 102.903 494.148 103.648ZM493.194 63.7597H501.84V42.4736C501.84 39.2445 501.155 37.7523 500.639 37.1262C500.276 36.6854 499.541 36.1042 497.471 36.1042C496.209 36.1042 495.458 36.3264 494.987 36.5988C494.703 36.7628 494.52 36.9449 494.387 37.1077C493.875 37.7354 493.194 39.2356 493.194 42.4736V63.7597ZM57.788 104.624L57.7983 104.606C58.5327 103.296 59.251 100.332 59.251 94.8639V45.657C59.251 40.0847 58.5538 37.1239 57.8689 35.8786L57.8657 35.8727C57.7912 35.7367 57.5048 35.2138 56.0625 34.9645V105.549C56.6209 105.447 56.9961 105.301 57.2499 105.154C57.6115 104.946 57.7269 104.735 57.775 104.648L57.7779 104.642L57.788 104.624ZM59.7818 109.47C58.7684 110.055 57.5287 110.43 56.0625 110.594C55.4913 110.658 54.8858 110.69 54.2459 110.69H51.0625V29.8308H54.2459C54.8855 29.8308 55.491 29.8618 56.0625 29.9237C59.0666 30.2494 61.1291 31.4312 62.25 33.469C63.584 35.8945 64.251 39.9572 64.251 45.657V94.8639C64.251 100.503 63.5537 104.566 62.159 107.052C61.5975 108.073 60.8051 108.879 59.7818 109.47ZM420.972 35.5616L420.944 35.5167C420.897 35.4431 420.815 35.3254 420.485 35.186C420.375 35.1393 420.236 35.0908 420.066 35.0452V51.8234C420.258 51.7753 420.413 51.7233 420.535 51.673C420.629 51.6348 420.702 51.5985 420.76 51.565C420.914 51.4758 420.959 51.4068 420.98 51.375L421.011 51.3276L421.042 51.2832C421.576 50.5061 422.163 48.897 422.163 45.839V41.0183C422.163 38.1375 421.597 36.4994 421.002 35.6058L420.972 35.5616ZM423.26 55.8944C422.386 56.3996 421.321 56.7357 420.066 56.9028C419.446 56.9852 418.78 57.0265 418.067 57.0265H415.066V29.8308H418.067C418.78 29.8308 419.446 29.8733 420.066 29.9584C422.452 30.2859 424.151 31.2438 425.162 32.8323C426.496 34.8334 427.163 37.562 427.163 41.0183V45.839C427.163 49.4165 426.496 52.1755 425.162 54.1159C424.683 54.8461 424.049 55.439 423.26 55.8944Z" fill="black"/>
<path d="M46.0209 150.43H0L17.3205 140.43H63.3414L46.0209 150.43Z" fill="black"/>
<path d="M46.0209 145.43H5L22.3205 135.43H63.3414L46.0209 145.43Z" fill="black"/>
<path d="M0 150.43V10L17.3205 0V140.43L0 150.43Z" fill="black"/>
<path d="M5 145.43V15L22.3205 5V135.43L5 145.43Z" fill="black"/>
<path d="M33.7419 120.69H36.9254L54.2459 110.69H51.0625L33.7419 120.69Z" fill="black"/>
<path d="M36.9253 120.69C37.5652 120.69 38.1707 120.658 38.7419 120.594L56.0624 110.594C55.4912 110.658 54.8857 110.69 54.2458 110.69L36.9253 120.69Z" fill="black"/>
<path d="M63.3864 146.086C58.3408 148.997 52.5079 150.43 46.0209 150.43L63.3414 140.43C69.8284 140.43 75.6613 138.997 80.707 136.086L63.3864 146.086Z" fill="black"/>
<path d="M60.8848 141.756C56.6404 144.205 51.6858 145.43 46.0209 145.43L63.3414 135.43C69.0063 135.43 73.9609 134.205 78.2053 131.756L60.8848 141.756Z" fill="black"/>
<path d="M38.7419 120.594C40.2082 120.43 41.4479 120.055 42.4613 119.47L59.7786 109.472C58.7659 110.056 57.5272 110.43 56.0625 110.594L38.7419 120.594Z" fill="black"/>
<path d="M38.7419 115.549C39.3004 115.447 39.6756 115.301 39.9294 115.154L57.2491 105.155C56.9953 105.301 56.6203 105.447 56.0625 105.549L38.7419 115.549Z" fill="black"/>
<path d="M39.9293 115.154C40.2909 114.945 40.4063 114.735 40.4544 114.647L57.7749 104.647C57.7268 104.735 57.6114 104.945 57.2498 105.154L39.9293 115.154Z" fill="black"/>
<path d="M40.4545 114.648L40.4574 114.643L57.7779 104.643L57.775 104.648L40.4545 114.648Z" fill="black"/>
<path d="M40.4574 114.642L40.4675 114.624L57.788 104.624L57.7779 104.642L40.4574 114.642Z" fill="black"/>
<path d="M40.4675 114.624L40.4778 114.605L57.7983 104.605L57.788 104.624L40.4675 114.624Z" fill="black"/>
<path d="M42.4612 119.47C43.4845 118.879 44.2769 118.073 44.8384 117.052L62.1589 107.052C61.5974 108.073 60.805 108.879 59.7817 109.47L42.4612 119.47Z" fill="black"/>
<path d="M40.4778 114.606C41.2122 113.297 41.9305 110.333 41.9305 104.864L59.251 94.8643C59.251 100.333 58.5327 103.297 57.7983 104.606L40.4778 114.606Z" fill="black"/>
<path d="M44.8385 117.052C46.2332 114.566 46.9305 110.503 46.9305 104.864L64.251 94.8643C64.251 100.503 63.5537 104.566 62.159 107.052L44.8385 117.052Z" fill="black"/>
<path d="M67.4863 136.334C65.5223 138.541 63.3253 140.346 60.8955 141.75L78.2053 131.756C80.6394 130.352 82.8399 128.544 84.8068 126.334L67.4863 136.334Z" fill="black"/>
<path d="M71.2112 139.67C68.8776 142.29 66.2655 144.423 63.3991 146.079L80.707 136.086C83.5783 134.429 86.1947 132.293 88.5317 129.67L71.2112 139.67Z" fill="black"/>
<path d="M33.7419 39.8311V120.69L51.0625 110.69V29.8311L33.7419 39.8311Z" fill="black"/>
<path d="M74.4015 150.43V135.455L91.722 125.455V140.43L74.4015 150.43Z" fill="black"/>
<path d="M38.7419 44.9648V115.55L56.0625 105.55V34.9648L38.7419 44.9648Z" fill="black"/>
<path d="M74.4015 135.455C73.4538 136.95 72.3918 138.357 71.2112 139.67L88.5317 129.67C89.7124 128.357 90.7743 126.95 91.722 125.455L74.4015 135.455Z" fill="black"/>
<path d="M41.9304 104.864V55.6572L59.2509 45.6572V94.8641L41.9304 104.864Z" fill="black"/>
<path d="M74.4015 122.271C73.0985 127.972 70.7934 132.66 67.4863 136.335L84.8068 126.335C88.1139 122.66 90.419 117.972 91.722 112.271L74.4015 122.271Z" fill="black"/>
<path d="M46.9304 104.864V55.6572L64.2509 45.6572V94.8641L46.9304 104.864Z" fill="black"/>
<path d="M75.6723 109.866C75.6723 114.43 75.2487 118.564 74.4015 122.271L91.722 112.271C92.5692 108.564 92.9928 104.43 92.9928 99.8662L75.6723 109.866Z" fill="black"/>
<path d="M41.9304 55.6573C41.9304 50.0849 41.2333 47.1242 40.5483 45.8789L57.8688 35.8789C58.5538 37.1242 59.2509 40.0849 59.2509 45.6573L41.9304 55.6573Z" fill="black"/>
<path d="M36.9254 39.8311H33.7419L51.0625 29.8311H54.2459L36.9254 39.8311Z" fill="black"/>
<path d="M40.5452 45.8731C40.4706 45.7371 40.1843 45.2141 38.7419 44.9648L56.0625 34.9648C57.5048 35.2141 57.7912 35.7371 57.8657 35.8731L40.5452 45.8731Z" fill="black"/>
<path d="M40.5483 45.8789L40.545 45.873L57.8656 35.873L57.8688 35.8789L40.5483 45.8789Z" fill="black"/>
<path d="M38.7419 39.924C38.1704 39.862 37.5649 39.8311 36.9253 39.8311L54.2458 29.8311C54.8854 29.8311 55.4909 29.862 56.0624 29.924L38.7419 39.924Z" fill="black"/>
<path d="M5 15H46.0209L63.3414 5H22.3205L5 15Z" fill="black"/>
<path d="M0 10H46.0209L63.3414 0H17.3205L0 10Z" fill="black"/>
<path d="M46.9305 55.6568C46.9305 49.9569 46.2635 45.8942 44.9294 43.4688L62.25 33.4688C63.584 35.8942 64.251 39.9569 64.251 45.6568L46.9305 55.6568Z" fill="black"/>
<path d="M44.9295 43.4691C43.8086 41.4313 41.7461 40.2495 38.7419 39.9238L56.0625 29.9238C59.0666 30.2495 61.1291 31.4313 62.25 33.4691L44.9295 43.4691Z" fill="black"/>
<path d="M139.25 145.43H79.4015L96.722 135.43H156.571L139.25 145.43Z" fill="black"/>
<path d="M75.6724 51.0186V109.867L92.9929 99.8667V41.0186L75.6724 51.0186Z" fill="black"/>
<path d="M79.4015 145.43V15L96.722 5V135.43L79.4015 145.43Z" fill="black"/>
<path d="M175.812 150.43H74.4015L91.722 140.43H193.132L175.812 150.43Z" fill="black"/>
<path d="M46.0209 15C55.0558 15 62.2412 18.0925 67.5773 24.2774L84.8978 14.2774C79.5618 8.09248 72.3763 5 63.3414 5L46.0209 15Z" fill="black"/>
<path d="M108.143 91.7666V120.508L125.464 110.508V81.7666L108.143 91.7666Z" fill="black"/>
<path d="M74.4015 38.4648C75.2487 42.221 75.6723 46.4055 75.6723 51.0184L92.9928 41.0184C92.9928 36.4055 92.5692 32.221 91.722 28.4648L74.4015 38.4648Z" fill="black"/>
<path d="M46.0209 10C56.3319 10 64.9619 13.5974 71.3545 21.0014L88.675 11.0014C82.2824 3.59742 73.6524 0 63.3414 0L46.0209 10Z" fill="black"/>
<path d="M113.143 96.7666V115.508L130.464 105.508V86.7666L113.143 96.7666Z" fill="black"/>
<path d="M67.5773 24.2773C70.8357 28.0117 73.1104 32.7408 74.4015 38.4647L91.722 28.4647C90.4309 22.7408 88.1562 18.0117 84.8978 14.2773L67.5773 24.2773Z" fill="black"/>
<path d="M108.143 120.508H139.25L156.571 110.508H125.464L108.143 120.508Z" fill="black"/>
<path d="M113.143 115.508H138.434L155.755 105.508H130.464L113.143 115.508Z" fill="black"/>
<path d="M71.3545 21.0015C72.4778 22.2901 73.4921 23.6648 74.4015 25.1215L91.722 15.1215C90.8127 13.6648 89.7983 12.2901 88.675 11.0015L71.3545 21.0015Z" fill="black"/>
<path d="M139.25 120.508V145.43L156.571 135.43V110.508L139.25 120.508Z" fill="black"/>
<path d="M74.4015 25.1214V10L91.722 0V15.1214L74.4015 25.1214Z" fill="black"/>
<path d="M135.339 91.7666H108.143L125.464 81.7666H152.66L135.339 91.7666Z" fill="black"/>
<path d="M138.434 96.7666H113.143L130.464 86.7666H155.755L138.434 96.7666Z" fill="black"/>
<path d="M143.434 145.43H170.812L188.132 135.43H160.755L143.434 145.43Z" fill="black"/>
<path d="M138.434 115.508V96.7666L155.755 86.7666V105.508L138.434 115.508Z" fill="black"/>
<path d="M108.143 39.8311V67.0267L125.464 57.0267V29.8311L108.143 39.8311Z" fill="black"/>
<path d="M113.143 44.8311V62.0267L130.464 52.0267V34.8311L113.143 44.8311Z" fill="black"/>
<path d="M108.143 67.0264H135.339L152.66 57.0264H125.464L108.143 67.0264Z" fill="black"/>
<path d="M135.339 67.0264V91.7662L152.659 81.7662V57.0264L135.339 67.0264Z" fill="black"/>
<path d="M113.143 62.0264H138.434L155.755 52.0264H130.464L113.143 62.0264Z" fill="black"/>
<path d="M175.812 124.29V150.43L193.132 140.43V114.29L175.812 124.29Z" fill="black"/>
<path d="M143.434 15V145.43L160.755 135.43V5L143.434 15Z" fill="black"/>
<path d="M179.795 150.43L175.812 124.29L193.132 114.29L197.116 140.43L179.795 150.43Z" fill="black"/>
<path d="M138.434 44.8311H113.143L130.464 34.8311H155.755L138.434 44.8311Z" fill="black"/>
<path d="M79.4015 15H139.796L157.116 5H96.722L79.4015 15Z" fill="black"/>
<path d="M139.796 39.8311H108.143L125.464 29.8311H157.116L139.796 39.8311Z" fill="black"/>
<path d="M138.434 62.0267V44.8311L155.755 34.8311V52.0267L138.434 62.0267Z" fill="black"/>
<path d="M215.625 150.43H179.795L197.116 140.43H232.946L215.625 150.43Z" fill="black"/>
<path d="M170.812 145.43V58.2949L188.132 48.2949V135.43L170.812 145.43Z" fill="black"/>
<path d="M184.091 145.43H211.469L228.789 135.43H201.412L184.091 145.43Z" fill="black"/>
<path d="M170.812 58.2949L184.091 145.43L201.412 135.43L188.132 48.2949L170.812 58.2949Z" fill="black"/>
<path d="M139.796 15V39.8308L157.116 29.8308V5L139.796 15Z" fill="black"/>
<path d="M74.4015 10H191.426L208.746 0H91.722L74.4015 10Z" fill="black"/>
<path d="M222.659 112.575L215.625 150.43L232.946 140.43L239.979 102.575L222.659 112.575Z" fill="black"/>
<path d="M222.659 150.43V112.575L239.979 102.575V140.43L222.659 150.43Z" fill="black"/>
<path d="M187.275 15H143.434L160.755 5H204.595L187.275 15Z" fill="black"/>
<path d="M227.659 145.43H255.036L272.357 135.43H244.979L227.659 145.43Z" fill="black"/>
<path d="M211.469 145.43L227.659 58.2949L244.979 48.2949L228.789 135.43L211.469 145.43Z" fill="black"/>
<path d="M199.372 79.6693L187.275 15L204.595 5L216.692 69.6693L199.372 79.6693Z" fill="black"/>
<path d="M227.659 58.2949V145.43L244.979 135.43V48.2949L227.659 58.2949Z" fill="black"/>
<path d="M292.507 150.43H222.659L239.979 140.43H309.828L292.507 150.43Z" fill="black"/>
<path d="M191.426 10L199.334 52.2772L216.655 42.2772L208.747 0L191.426 10Z" fill="black"/>
<path d="M211.287 15L199.372 79.6693L216.692 69.6693L228.607 5L211.287 15Z" fill="black"/>
<path d="M199.334 52.2772L207.124 10L224.444 0L216.655 42.2772L199.334 52.2772Z" fill="black"/>
<path d="M258.766 145.43H287.507L304.828 135.43H276.086L258.766 145.43Z" fill="black"/>
<path d="M255.036 145.43V15L272.357 5V135.43L255.036 145.43Z" fill="black"/>
<path d="M292.507 133.393V150.43L309.828 140.43V123.393L292.507 133.393Z" fill="black"/>
<path d="M258.766 15V145.43L276.086 135.43V5L258.766 15Z" fill="black"/>
<path d="M296.788 139.04C295.165 137.321 293.741 135.436 292.507 133.393L309.828 123.393C311.061 125.436 312.485 127.321 314.108 129.04L296.788 139.04Z" fill="black"/>
<path d="M255.036 15H211.287L228.607 5H272.357L255.036 15Z" fill="black"/>
<path d="M292.507 119.749C291.599 115.693 291.146 111.155 291.146 106.137L308.466 96.1372C308.466 101.155 308.92 105.693 309.828 109.749L292.507 119.749Z" fill="black"/>
<path d="M328.255 150.43C315.039 150.43 304.228 146.918 296.788 139.04L314.108 129.04C321.549 136.918 332.36 140.43 345.576 140.43L328.255 150.43Z" fill="black"/>
<path d="M328.255 145.43C308.255 145.43 296.339 136.87 292.507 119.75L309.828 109.75C313.659 126.87 325.575 135.43 345.576 135.43L328.255 145.43Z" fill="black"/>
<path d="M287.507 145.43V15L304.828 5V135.43L287.507 145.43Z" fill="black"/>
<path d="M352.32 144.873C345.725 148.678 337.59 150.43 328.255 150.43L345.576 140.43C354.911 140.43 363.046 138.678 369.641 134.873L352.32 144.873Z" fill="black"/>
<path d="M319.887 107.956C319.887 111.776 320.464 114.626 321.616 116.506L338.936 106.506C337.784 104.626 337.208 101.776 337.208 97.9561L319.887 107.956Z" fill="black"/>
<path d="M291.146 106.137V15L308.466 5V96.1373L291.146 106.137Z" fill="black"/>
<path d="M349.82 140.54C344.171 143.8 336.983 145.43 328.255 145.43L345.576 135.43C354.303 135.43 361.491 133.8 367.14 130.54L349.82 140.54Z" fill="black"/>
<path d="M321.616 116.506C322.828 118.386 325.042 119.325 328.255 119.325L345.576 109.325C342.362 109.325 340.149 108.386 338.936 106.506L321.616 116.506Z" fill="black"/>
<path d="M325.841 113.83C325.875 113.872 325.947 113.937 326.139 114.018L343.46 104.018C343.268 103.937 343.196 103.872 343.162 103.83L325.841 113.83Z" fill="black"/>
<path d="M207.124 10H324.887L342.208 0H224.444L207.124 10Z" fill="black"/>
<path d="M326.139 114.019C326.458 114.154 327.106 114.326 328.255 114.326L345.576 104.326C344.427 104.326 343.778 104.154 343.46 104.019L326.139 114.019Z" fill="black"/>
<path d="M324.887 107.956C324.887 111.347 325.414 113.085 325.841 113.83L343.162 103.83C342.734 103.085 342.208 101.347 342.208 97.9561L324.887 107.956Z" fill="black"/>
<path d="M328.255 119.326C330.161 119.326 331.704 118.985 332.884 118.303L350.202 108.304C349.022 108.985 347.48 109.326 345.576 109.326L328.255 119.326Z" fill="black"/>
<path d="M328.255 114.326C329.391 114.326 330 114.15 330.272 114.029L347.593 104.029C347.321 104.15 346.712 104.326 345.576 104.326L328.255 114.326Z" fill="black"/>
<path d="M287.507 15H258.766L276.086 5H304.828L287.507 15Z" fill="black"/>
<path d="M330.272 114.029C330.319 114.008 330.356 113.989 330.385 113.973L347.705 103.973C347.676 103.99 347.64 104.008 347.593 104.029L330.272 114.029Z" fill="black"/>
<path d="M330.385 113.972C330.482 113.916 330.493 113.882 330.505 113.862L347.825 103.862C347.814 103.882 347.803 103.916 347.706 103.972L330.385 113.972Z" fill="black"/>
<path d="M330.505 113.862L330.534 113.813L347.854 103.813L347.825 103.862L330.505 113.862Z" fill="black"/>
<path d="M330.534 113.813L330.564 113.765L347.885 103.765L347.854 103.813L330.534 113.813Z" fill="black"/>
<path d="M332.885 118.303C333.695 117.834 334.335 117.205 334.804 116.415L352.125 106.415C351.656 107.205 351.016 107.834 350.205 108.303L332.885 118.303Z" fill="black"/>
<path d="M330.564 113.765C331.05 112.989 331.623 111.217 331.623 107.774L348.944 97.7744C348.944 101.217 348.37 102.989 347.885 103.765L330.564 113.765Z" fill="black"/>
<path d="M334.804 116.415C336.017 114.475 336.623 111.595 336.623 107.774L353.944 97.7744C353.944 101.595 353.337 104.475 352.125 106.415L334.804 116.415Z" fill="black"/>
<path d="M359.723 139.04C357.542 141.349 355.071 143.283 352.336 144.864L369.641 134.873C372.383 133.29 374.858 131.354 377.043 129.04L359.723 139.04Z" fill="black"/>
<path d="M364.003 119.75C361.845 129.395 357.12 136.324 349.829 140.535L367.14 130.54C374.436 126.33 379.164 119.399 381.324 109.75L364.003 119.75Z" fill="black"/>
<path d="M364.003 150.43V133.393L381.324 123.393V140.43L364.003 150.43Z" fill="black"/>
<path d="M364.003 133.393C362.77 135.436 361.346 137.321 359.723 139.04L377.043 129.04C378.667 127.321 380.09 125.436 381.324 123.393L364.003 133.393Z" fill="black"/>
<path d="M319.887 15V107.956L337.208 97.9564V5L319.887 15Z" fill="black"/>
<path d="M324.887 10V107.956L342.208 97.9564V0L324.887 10Z" fill="black"/>
<path d="M402.745 150.43H364.003L381.324 140.43H420.066L402.745 150.43Z" fill="black"/>
<path d="M291.146 15H319.887L337.208 5H308.466L291.146 15Z" fill="black"/>
<path d="M331.623 107.774V10L348.944 0V97.7745L331.623 107.774Z" fill="black"/>
<path d="M397.745 145.43H369.003L386.324 135.43H415.066L397.745 145.43Z" fill="black"/>
<path d="M365.365 106.137C365.365 111.155 364.911 115.693 364.003 119.749L381.324 109.749C382.232 105.693 382.686 101.155 382.686 96.1372L365.365 106.137Z" fill="black"/>
<path d="M336.623 107.774V15L353.944 5V97.7745L336.623 107.774Z" fill="black"/>
<path d="M369.003 145.43V15L386.324 5V135.43L369.003 145.43Z" fill="black"/>
<path d="M397.745 93.1309V145.43L415.066 135.43V83.1309L397.745 93.1309Z" fill="black"/>
<path d="M365.365 15V106.137L382.686 96.1373V5L365.365 15Z" fill="black"/>
<path d="M402.745 98.3447V150.43L420.066 140.43V88.3447L402.745 98.3447Z" fill="black"/>
<path d="M404.842 150.43V104.228L422.163 94.2275V140.43L404.842 150.43Z" fill="black"/>
<path d="M443.493 150.43H404.842L422.163 140.43H460.814L443.493 150.43Z" fill="black"/>
<path d="M409.842 145.43V104.228L427.163 94.2275V135.43L409.842 145.43Z" fill="black"/>
<path d="M438.493 145.43H409.842L427.163 135.43H455.814L438.493 145.43Z" fill="black"/>
<path d="M336.623 15H365.365L382.686 5H353.944L336.623 15Z" fill="black"/>
<path d="M400.747 93.1309H397.745L415.066 83.1309H418.067L400.747 93.1309Z" fill="black"/>
<path d="M404.842 104.227C404.842 101.333 404.272 99.7656 403.721 98.9648L421.042 88.9648C421.592 89.7656 422.163 91.3332 422.163 94.2272L404.842 104.227Z" fill="black"/>
<path d="M403.164 98.4855C403.054 98.4389 402.916 98.3904 402.745 98.3447L420.066 88.3447C420.236 88.3904 420.375 88.4389 420.485 88.4855L403.164 98.4855Z" fill="black"/>
<path d="M403.623 98.8165C403.576 98.7429 403.494 98.6252 403.164 98.4858L420.485 88.4858C420.814 88.6252 420.897 88.7429 420.944 88.8165L403.623 98.8165Z" fill="black"/>
<path d="M403.671 98.8914L403.623 98.8164L420.944 88.8164L420.991 88.8914L403.671 98.8914Z" fill="black"/>
<path d="M403.721 98.9649L403.671 98.8916L420.991 88.8916L421.042 88.9649L403.721 98.9649Z" fill="black"/>
<path d="M402.745 93.2584C402.126 93.1734 401.459 93.1309 400.747 93.1309L418.067 83.1309C418.78 83.1309 419.446 83.1734 420.066 83.2584L402.745 93.2584Z" fill="black"/>
<path d="M407.841 96.1323C406.83 94.5438 405.132 93.5858 402.745 93.2583L420.066 83.2583C422.452 83.5858 424.151 84.5438 425.162 86.1323L407.841 96.1323Z" fill="black"/>
<path d="M409.842 104.227C409.842 100.771 409.175 98.0722 407.841 96.1318L425.162 86.1318C426.496 88.0722 427.163 90.7706 427.163 94.2269L409.842 104.227Z" fill="black"/>
<path d="M397.745 67.0264H400.747L418.067 57.0264H415.066L397.745 67.0264Z" fill="black"/>
<path d="M443.493 135.379V150.43L460.814 140.43V125.379L443.493 135.379Z" fill="black"/>
<path d="M400.747 67.0265C401.459 67.0265 402.126 66.9853 402.745 66.9028L420.066 56.9028C419.446 56.9853 418.78 57.0265 418.067 57.0265L400.747 67.0265Z" fill="black"/>
<path d="M445.962 138.917C445.066 137.8 444.244 136.62 443.493 135.379L460.814 125.379C461.565 126.62 462.387 127.8 463.282 128.917L445.962 138.917Z" fill="black"/>
<path d="M445.971 138.928L445.962 138.917L463.282 128.917L463.291 128.928L445.971 138.928Z" fill="black"/>
<path d="M445.98 138.939L445.971 138.928L463.291 128.928L463.3 128.939L445.98 138.939Z" fill="black"/>
<path d="M402.745 66.9029C404 66.7359 405.065 66.3998 405.94 65.8945L423.258 55.896C422.384 56.4004 421.32 56.7361 420.066 56.9029L402.745 66.9029Z" fill="black"/>
<path d="M331.623 10H412.844L430.164 0H348.944L331.623 10Z" fill="black"/>
<path d="M438.493 103.863V145.43L455.814 135.43V93.8633L438.493 103.863Z" fill="black"/>
<path d="M397.745 39.8311V67.0267L415.066 57.0267V29.8311L397.745 39.8311Z" fill="black"/>
<path d="M402.745 61.8233C402.937 61.7752 403.092 61.7232 403.215 61.6729L420.535 51.6729C420.413 51.7232 420.258 51.7752 420.066 51.8233L402.745 61.8233Z" fill="black"/>
<path d="M403.215 61.6729C403.308 61.6347 403.381 61.5984 403.439 61.5649L420.759 51.5653C420.701 51.5986 420.628 51.6348 420.535 51.6729L403.215 61.6729Z" fill="black"/>
<path d="M403.439 61.565C403.594 61.4758 403.639 61.4067 403.66 61.375L420.98 51.375C420.959 51.4067 420.914 51.4758 420.76 51.565L403.439 61.565Z" fill="black"/>
<path d="M403.659 61.3751L403.691 61.3276L421.011 51.3276L420.98 51.3751L403.659 61.3751Z" fill="black"/>
<path d="M403.691 61.3276L403.721 61.2832L421.042 51.2832L421.011 51.3276L403.691 61.3276Z" fill="black"/>
<path d="M405.94 65.8947C406.728 65.4393 407.362 64.8464 407.841 64.1162L425.162 54.1162C424.683 54.8464 424.049 55.4393 423.26 55.8947L405.94 65.8947Z" fill="black"/>
<path d="M403.721 61.2832C404.255 60.506 404.842 58.8969 404.842 55.8389L422.163 45.8389C422.163 48.8969 421.576 50.506 421.042 51.2832L403.721 61.2832Z" fill="black"/>
<path d="M402.745 45.0449V61.8231L420.066 51.8231V35.0449L402.745 45.0449Z" fill="black"/>
<path d="M449.863 135.788C446.872 132.059 444.749 127.348 443.493 121.658L460.814 111.658C462.069 117.348 464.192 122.059 467.183 125.788L449.863 135.788Z" fill="black"/>
<path d="M404.842 55.8392V51.0186L422.163 41.0186V45.8392L404.842 55.8392Z" fill="black"/>
<path d="M407.841 64.1158C409.175 62.1754 409.842 59.4164 409.842 55.8389L427.163 45.8389C427.163 49.4164 426.496 52.1754 425.162 54.1158L407.841 64.1158Z" fill="black"/>
<path d="M470.51 150.43C460.51 150.43 452.18 146.581 445.98 138.939L463.3 128.939C469.5 136.581 477.831 140.43 487.83 140.43L470.51 150.43Z" fill="black"/>
<path d="M400.747 39.8311H397.745L415.066 29.8311H418.067L400.747 39.8311Z" fill="black"/>
<path d="M404.842 51.0184C404.842 48.1376 404.277 46.4995 403.681 45.606L421.002 35.606C421.597 36.4995 422.163 38.1376 422.163 41.0184L404.842 51.0184Z" fill="black"/>
<path d="M443.493 121.658C442.585 117.543 442.131 112.915 442.131 107.774L459.452 97.7744C459.452 102.915 459.906 107.543 460.814 111.658L443.493 121.658Z" fill="black"/>
<path d="M403.164 45.1857C403.054 45.1391 402.916 45.0905 402.745 45.0449L420.066 35.0449C420.236 35.0905 420.375 35.1391 420.485 35.1857L403.164 45.1857Z" fill="black"/>
<path d="M403.623 45.5167C403.576 45.4431 403.494 45.3254 403.164 45.186L420.485 35.186C420.814 35.3254 420.897 35.4431 420.944 35.5167L403.623 45.5167Z" fill="black"/>
<path d="M403.652 45.5615L403.623 45.5166L420.944 35.5166L420.972 35.5615L403.652 45.5615Z" fill="black"/>
<path d="M403.681 45.6058L403.652 45.5615L420.972 35.5615L421.002 35.6058L403.681 45.6058Z" fill="black"/>
<path d="M422.303 80.2148C424.876 80.9296 427.139 81.8734 429.092 83.0464L446.413 73.0464C444.46 71.8734 442.197 70.9296 439.624 70.2148L422.303 80.2148Z" fill="black"/>
<path d="M402.745 39.9586C402.126 39.8736 401.459 39.8311 400.747 39.8311L418.067 29.8311C418.78 29.8311 419.446 29.8736 420.066 29.9586L402.745 39.9586Z" fill="black"/>
<path d="M409.842 55.8392V51.0186L427.163 41.0186V45.8392L409.842 55.8392Z" fill="black"/>
<path d="M470.51 145.43C461.96 145.43 455.077 142.217 449.863 135.789L467.183 125.789C472.398 132.217 479.28 135.43 487.83 135.43L470.51 145.43Z" fill="black"/>
<path d="M429.103 77.3975C427.147 78.5599 424.881 79.4991 422.303 80.2152L439.624 70.2152C441.987 69.5587 444.089 68.7146 445.929 67.6829L446.423 67.3975C446.261 67.4941 446.096 67.5893 445.929 67.6829L429.103 77.3975Z" fill="black"/>
<path d="M437.131 93.1992C438.039 96.135 438.493 99.6899 438.493 103.864L455.814 93.8637C455.814 89.6899 455.36 86.135 454.452 83.1992L437.131 93.1992Z" fill="black"/>
<path d="M407.841 42.8325C406.83 41.244 405.132 40.286 402.745 39.9585L420.066 29.9585C422.452 30.286 424.151 31.244 425.162 32.8325L407.841 42.8325Z" fill="black"/>
<path d="M409.842 51.018C409.842 47.5617 409.175 44.833 407.841 42.832L425.162 32.832C426.496 34.833 427.163 37.5617 427.163 41.018L409.842 51.018Z" fill="black"/>
<path d="M369.003 15H412.844L430.164 5H386.324L369.003 15Z" fill="black"/>
<path d="M429.092 83.0469C431.281 84.3618 433.081 85.9647 434.491 87.8556L451.812 77.8556C450.402 75.9647 448.602 74.3618 446.413 73.0469L429.092 83.0469Z" fill="black"/>
<path d="M434.491 87.8555C435.603 89.3209 436.483 91.1021 437.131 93.1992L454.452 83.1992C453.804 81.1021 452.923 79.3209 451.812 77.8555L434.491 87.8555Z" fill="black"/>
<path d="M433.859 80.2324C435.046 81.1233 436.14 82.1125 437.131 83.205L454.452 73.205C453.46 72.1125 452.366 71.1233 451.179 70.2324L433.859 80.2324Z" fill="black"/>
<path d="M434.491 72.666C433.083 74.5218 431.287 76.099 429.103 77.3976L446.423 67.3976C448.608 66.099 450.404 64.5218 451.812 62.666L434.491 72.666Z" fill="black"/>
<path d="M437.131 77.2949C436.14 78.3742 435.046 79.3518 433.859 80.2328L451.179 70.2328C452.366 69.3518 453.46 68.3742 454.452 67.2949L437.131 77.2949Z" fill="black"/>
<path d="M437.131 83.2054V77.2949L454.452 67.2949V73.2054L437.131 83.2054Z" fill="black"/>
<path d="M483.973 147.579C480.068 149.508 475.529 150.43 470.51 150.43L487.83 140.43C492.85 140.43 497.389 139.508 501.294 137.579L483.973 147.579Z" fill="black"/>
<path d="M482.808 142.534C479.463 144.464 475.363 145.43 470.51 145.43L487.83 135.43C492.684 135.43 496.783 134.464 500.129 132.534L482.808 142.534Z" fill="black"/>
<path d="M437.131 67.2617C436.483 69.3735 435.603 71.1747 434.491 72.6654L451.812 62.6654C452.923 61.1747 453.804 59.3735 454.452 57.2617L437.131 67.2617Z" fill="black"/>
<path d="M442.131 107.774V53.9287L459.452 43.9287V97.7743L442.131 107.774Z" fill="black"/>
<path d="M483.974 150.43V147.579L501.294 137.579V140.43L483.974 150.43Z" fill="black"/>
<path d="M483.973 141.802C483.599 142.058 483.213 142.301 482.817 142.529L500.129 132.534C500.528 132.304 500.916 132.06 501.294 131.802L483.973 141.802Z" fill="black"/>
<path d="M438.493 56.5664C438.493 60.7402 438.039 64.3053 437.131 67.2618L454.452 57.2618C455.36 54.3053 455.814 50.7402 455.814 46.5664L438.493 56.5664Z" fill="black"/>
<path d="M488.974 136.698C487.594 138.767 485.927 140.469 483.974 141.802L501.294 131.802C503.248 130.469 504.915 128.767 506.294 126.698L488.974 136.698Z" fill="black"/>
<path d="M470.873 107.774C470.873 111.595 471.449 114.444 472.601 116.324L489.922 106.324C488.77 104.444 488.194 101.595 488.194 97.7744L470.873 107.774Z" fill="black"/>
<path d="M488.974 145.43V136.698L506.294 126.698V135.43L488.974 145.43Z" fill="black"/>
<path d="M472.602 116.324C473.814 118.204 476.028 119.144 479.241 119.144L496.562 109.144C493.348 109.144 491.135 108.204 489.922 106.324L472.602 116.324Z" fill="black"/>
<path d="M438.493 41.6499V56.5666L455.814 46.5666V31.6499L438.493 41.6499Z" fill="black"/>
<path d="M412.844 15C420.242 15 426.366 17.5164 431.217 22.5493L448.537 12.5493C443.686 7.51643 437.562 5 430.164 5L412.844 15Z" fill="black"/>
<path d="M476.827 113.648C476.861 113.69 476.933 113.755 477.125 113.837L494.446 103.837C494.254 103.755 494.181 103.69 494.148 103.648L476.827 113.648Z" fill="black"/>
<path d="M477.125 113.837C477.444 113.972 478.092 114.144 479.241 114.144L496.562 104.144C495.413 104.144 494.764 103.972 494.446 103.837L477.125 113.837Z" fill="black"/>
<path d="M475.873 107.774C475.873 111.165 476.399 112.903 476.827 113.648L494.148 103.648C493.72 102.903 493.194 101.165 493.194 97.7744L475.873 107.774Z" fill="black"/>
<path d="M479.241 119.144C481.184 119.144 482.75 118.8 483.94 118.113L501.258 108.115C500.069 108.801 498.503 109.144 496.562 109.144L479.241 119.144Z" fill="black"/>
<path d="M475.873 106.499V107.774L493.194 97.7745V96.4985L475.873 106.499Z" fill="black"/>
<path d="M479.241 114.144C480.394 114.144 481.023 113.971 481.311 113.847L498.632 103.847C498.343 103.971 497.714 104.144 496.562 104.144L479.241 114.144Z" fill="black"/>
<path d="M438.463 40.1846C438.483 40.6675 438.493 41.1559 438.493 41.6498L455.814 31.6498C455.814 31.1559 455.804 30.6675 455.784 30.1846L438.463 40.1846Z" fill="black"/>
<path d="M442.131 53.9289C442.131 49.441 442.509 45.348 443.264 41.6499L460.584 31.6499C459.829 35.348 459.452 39.441 459.452 43.9289L442.131 53.9289Z" fill="black"/>
<path d="M412.844 10C421.511 10 428.964 13.0069 434.817 19.0794L452.137 9.07942C446.284 3.00689 438.832 0 430.164 0L412.844 10Z" fill="black"/>
<path d="M481.312 113.847C481.369 113.822 481.411 113.8 481.442 113.782L498.756 103.786C498.726 103.803 498.686 103.824 498.632 103.847L481.312 113.847Z" fill="black"/>
<path d="M481.442 113.782C481.481 113.759 481.5 113.743 481.505 113.739L498.825 103.739C498.82 103.743 498.801 103.759 498.762 103.782L481.442 113.782Z" fill="black"/>
<path d="M521.351 150.43H483.974L501.294 140.43H538.672L521.351 150.43Z" fill="black"/>
<path d="M481.505 113.739C481.508 113.736 481.511 113.734 481.514 113.73L498.834 103.73C498.831 103.734 498.829 103.736 498.826 103.739L498.825 103.74L481.505 113.74L481.505 113.739Z" fill="black"/>
<path d="M481.514 113.731C481.517 113.727 481.521 113.721 481.527 113.711L498.848 103.711C498.842 103.721 498.838 103.727 498.834 103.731L481.514 113.731Z" fill="black"/>
<path d="M481.527 113.711L481.557 113.662L498.878 103.662L498.848 103.711L481.527 113.711Z" fill="black"/>
<path d="M481.557 113.662L481.589 113.613L498.909 103.613L498.878 103.662L481.557 113.662Z" fill="black"/>
<path d="M431.217 22.5493C435.757 27.2594 438.172 33.1379 438.463 40.1847L455.784 30.1847C455.493 23.1379 453.077 17.2594 448.537 12.5493L431.217 22.5493Z" fill="black"/>
<path d="M483.94 118.113C484.718 117.664 485.335 117.067 485.79 116.324L503.111 106.324C502.655 107.067 502.038 107.664 501.26 108.113L483.94 118.113Z" fill="black"/>
<path d="M482.609 106.499H475.873L493.194 96.4985H499.93L482.609 106.499Z" fill="black"/>
<path d="M481.589 113.614C482.029 112.932 482.609 111.236 482.609 107.774L499.93 97.7744C499.93 101.236 499.349 102.932 498.909 103.614L481.589 113.614Z" fill="black"/>
<path d="M516.351 145.43H488.974L506.294 135.43H533.672L516.351 145.43Z" fill="black"/>
<path d="M443.264 41.6499C443.333 41.3108 443.405 40.975 443.481 40.6426L460.801 30.6426C460.726 30.975 460.653 31.3108 460.584 31.6499L443.264 41.6499Z" fill="black"/>
<path d="M482.609 107.774V106.499L499.93 96.4985V97.7745L482.609 107.774Z" fill="black"/>
<path d="M485.79 116.324C487.003 114.444 487.609 111.595 487.609 107.774L504.93 97.7744C504.93 101.595 504.323 104.444 503.111 106.324L485.79 116.324Z" fill="black"/>
<path d="M434.817 19.0791C438.016 22.3985 440.313 26.1952 441.737 30.4041L459.057 20.4041C457.634 16.1952 455.337 12.3985 452.137 9.0791L434.817 19.0791Z" fill="black"/>
<path d="M487.609 101.499H477.786L495.107 91.4985H504.93L487.609 101.499Z" fill="black"/>
<path d="M470.873 52.4736V107.774L488.194 97.7745V42.4736L470.873 52.4736Z" fill="black"/>
<path d="M477.786 101.499V78.7598L495.107 68.7598V91.4986L477.786 101.499Z" fill="black"/>
<path d="M487.609 107.774V101.499L504.93 91.4985V97.7745L487.609 107.774Z" fill="black"/>
<path d="M443.481 40.6426C445.009 33.9215 447.833 28.5574 451.955 24.5503L469.275 14.5503C465.154 18.5574 462.329 23.9215 460.801 30.6426L443.481 40.6426Z" fill="black"/>
<path d="M441.737 30.4044C443.458 26.8308 445.688 23.669 448.469 20.9653L465.79 10.9653C463.009 13.669 460.779 16.8308 459.057 20.4044L441.737 30.4044Z" fill="black"/>
<path d="M475.873 73.7598H484.519L501.84 63.7598H493.194L475.873 73.7598Z" fill="black"/>
<path d="M475.873 52.4736V73.7597L493.194 63.7597V42.4736L475.873 52.4736Z" fill="black"/>
<path d="M448.469 20.9651C450.544 18.9475 452.838 17.2251 455.335 15.7842L472.64 5.79327C470.149 7.23231 467.861 8.95173 465.79 10.9651L448.469 20.9651Z" fill="black"/>
<path d="M451.955 24.5503C453.71 22.8437 455.67 21.3658 457.835 20.1167L475.142 10.1245C472.982 11.372 471.027 12.8473 469.275 14.5503L451.955 24.5503Z" fill="black"/>
<path d="M475.159 42.271C472.302 43.9213 470.873 47.3222 470.873 52.4736L488.194 42.4736C488.194 37.3222 489.622 33.9213 492.479 32.271L475.159 42.271Z" fill="black"/>
<path d="M477.067 47.1074C476.554 47.7352 475.873 49.2354 475.873 52.4734L493.194 42.4734C493.194 39.2354 493.875 37.7352 494.387 37.1074L477.067 47.1074Z" fill="black"/>
<path d="M484.519 73.7597V52.4736L501.84 42.4736V63.7597L484.519 73.7597Z" fill="black"/>
<path d="M477.666 46.5986C477.382 46.7626 477.199 46.9447 477.067 47.1075L494.387 37.1075C494.52 36.9447 494.703 36.7626 494.987 36.5986L477.666 46.5986Z" fill="black"/>
<path d="M477.786 78.7598H516.351L533.672 68.7598H495.107L477.786 78.7598Z" fill="black"/>
<path d="M516.351 78.7598V145.43L533.672 135.43V68.7598L516.351 78.7598Z" fill="black"/>
<path d="M480.151 46.1045C478.889 46.1045 478.139 46.3264 477.667 46.5986L494.987 36.5991C495.458 36.3267 496.209 36.1045 497.471 36.1045L480.151 46.1045Z" fill="black"/>
<path d="M480.151 41.1045C478.171 41.1045 476.508 41.4929 475.161 42.2697L492.479 32.2713C493.826 31.4934 495.49 31.1045 497.471 31.1045L480.151 41.1045Z" fill="black"/>
<path d="M489.519 70.2099V52.4736L506.84 42.4736V60.2099L489.519 70.2099Z" fill="black"/>
<path d="M483.318 47.1265C482.955 46.6857 482.22 46.1045 480.151 46.1045L497.471 36.1045C499.541 36.1045 500.276 36.6857 500.639 37.1265L483.318 47.1265Z" fill="black"/>
<path d="M484.519 52.4734C484.519 49.2444 483.834 47.7521 483.318 47.126L500.639 37.126C501.155 37.7521 501.84 39.2444 501.84 42.4734L484.519 52.4734Z" fill="black"/>
<path d="M489.519 52.4739C489.519 44.8943 486.396 41.1045 480.151 41.1045L497.471 31.1045C503.717 31.1045 506.84 34.8943 506.84 42.4739L489.519 52.4739Z" fill="black"/>
<path d="M457.835 20.1168C463.747 16.7056 471.185 15 480.151 15L497.471 5C488.506 5 481.067 6.70559 475.155 10.1168L457.835 20.1168Z" fill="black"/>
<path d="M455.335 15.7844C462.181 11.8343 470.556 10 480.151 10L497.471 0C487.877 0 479.502 1.83427 472.656 5.78442L455.335 15.7844Z" fill="black"/>
<path d="M516.351 70.21H489.519L506.84 60.21H533.672L516.351 70.21Z" fill="black"/>
<path d="M521.351 52.4736V150.43L538.672 140.43V42.4736L521.351 52.4736Z" fill="black"/>
<path d="M516.351 52.4736V70.2099L533.672 60.2099V42.4736L516.351 52.4736Z" fill="black"/>
<path d="M480.151 15C492.703 15 501.859 18.0622 507.619 24.1865L524.94 14.1865C519.179 8.06216 510.023 5 497.471 5L480.151 15Z" fill="black"/>
<path d="M480.151 10C493.392 10 504.157 13.2206 511.244 20.7424L528.565 10.7424C521.477 3.22057 510.712 0 497.471 0L480.151 10Z" fill="black"/>
<path d="M507.619 24.1865C513.441 30.2502 516.351 39.6793 516.351 52.4736L533.672 42.4736C533.672 29.6793 530.761 20.2502 524.94 14.1865L507.619 24.1865Z" fill="black"/>
<path d="M511.244 20.7422C518.317 28.1226 521.351 39.0575 521.351 52.4734L538.672 42.4734C538.672 29.0575 535.637 18.1226 528.565 10.7422L511.244 20.7422Z" fill="black"/>
<path fill-rule="evenodd" clip-rule="evenodd" d="M46.0209 15C55.0558 15 62.2412 18.0925 67.5773 24.2774C72.974 30.4624 75.6723 39.376 75.6723 51.0183V109.866C75.6723 121.448 72.9437 130.271 67.4863 136.334C62.0896 142.398 54.9345 145.43 46.0209 145.43H5V15H46.0209ZM44.9294 43.469C43.5954 41.0436 40.9274 39.8308 36.9253 39.8308H33.7419V120.69H36.9253C40.8667 120.69 43.5044 119.477 44.8384 117.052C46.2331 114.566 46.9304 110.503 46.9304 104.864V55.657C46.9304 49.9572 46.2634 45.8945 44.9294 43.469Z" fill="white"/>
<path d="M170.812 58.2948L184.091 145.43H211.469L227.659 58.2948V145.43H255.036V15H211.287L199.372 79.6693L187.275 15H143.434V145.43H170.812V58.2948Z" fill="white"/>
<path d="M321.616 116.506C320.464 114.626 319.887 111.777 319.887 107.956V15H291.146V106.137C291.146 132.332 303.516 145.43 328.255 145.43C352.995 145.43 365.365 132.332 365.365 106.137V15H336.623V107.774C336.623 111.595 336.017 114.475 334.804 116.415C333.652 118.356 331.469 119.326 328.255 119.326C325.042 119.326 322.828 118.386 321.616 116.506Z" fill="white"/>
<path fill-rule="evenodd" clip-rule="evenodd" d="M412.844 15C420.242 15 426.366 17.5164 431.217 22.5493C436.068 27.5822 438.493 33.949 438.493 41.6499V56.5666C438.493 63.7218 437.159 69.0881 434.491 72.6657C431.823 76.1826 427.761 78.6991 422.303 80.215C427.761 81.7309 431.823 84.2777 434.491 87.8552C437.159 91.3722 438.493 96.7082 438.493 103.863V145.43H409.842V104.227C409.842 100.771 409.175 98.0726 407.841 96.1322C406.568 94.1312 404.203 93.1307 400.747 93.1307H397.745V145.43H369.003V15H412.844ZM407.841 42.8323C406.568 40.8313 404.203 39.8308 400.747 39.8308H397.745V67.0265H400.747C404.203 67.0265 406.568 66.0563 407.841 64.1159C409.175 62.1755 409.842 59.4165 409.842 55.839V51.0183C409.842 47.562 409.175 44.8334 407.841 42.8323Z" fill="white"/>
<path d="M451.955 24.5503C445.406 30.9172 442.131 40.71 442.131 53.9289V107.774C442.131 120.023 444.709 129.361 449.863 135.789C455.077 142.216 461.96 145.43 470.51 145.43C478.938 145.43 485.093 142.519 488.973 136.698V145.43H516.351V78.7597H477.786V101.499H487.609V107.774C487.609 111.595 487.003 114.445 485.79 116.324C484.638 118.204 482.455 119.144 479.241 119.144C476.028 119.144 473.814 118.204 472.602 116.324C471.449 114.445 470.873 111.595 470.873 107.774V52.4736C470.873 44.894 473.966 41.1042 480.151 41.1042C486.396 41.1042 489.519 44.894 489.519 52.4736V70.2099H516.351V52.4736C516.351 39.6792 513.44 30.2502 507.619 24.1865C501.859 18.0622 492.703 15 480.151 15C467.902 15 458.503 18.1834 451.955 24.5503Z" fill="white"/>
<path d="M79.4015 15H139.796V39.8308H108.143V67.0265H135.339V91.7663H108.143V120.508H139.25V145.43H79.4015V15Z" fill="white"/>
<path d="M258.765 15H287.507V145.43H258.765V15Z" fill="white"/>
<path fill-rule="evenodd" clip-rule="evenodd" d="M5 145.43V15H46.0209C55.0558 15 62.2412 18.0925 67.5773 24.2774C70.8357 28.0118 73.1104 32.7409 74.4015 38.4648C75.2487 42.2209 75.6723 46.4054 75.6723 51.0183V109.866C75.6723 114.43 75.2487 118.565 74.4015 122.271C73.0985 127.972 70.7934 132.66 67.4863 136.334C62.0896 142.398 54.9345 145.43 46.0209 145.43H5ZM74.4015 135.455C73.4538 136.95 72.3918 138.357 71.2112 139.67C64.7674 146.904 56.1994 150.43 46.0209 150.43H0V10H46.0209C56.3319 10 64.9619 13.5974 71.3545 21.0014C72.4778 22.29 73.4922 23.6647 74.4015 25.1214V10H191.426L199.334 52.2772L207.124 10H324.887V107.956C324.887 111.347 325.414 113.085 325.841 113.83C325.875 113.872 325.947 113.937 326.139 114.019C326.458 114.154 327.106 114.326 328.255 114.326C329.391 114.326 330 114.15 330.272 114.029C330.476 113.939 330.49 113.888 330.505 113.863L330.534 113.814L330.564 113.765C331.05 112.989 331.623 111.217 331.623 107.774V10H412.844C421.511 10 428.964 13.0069 434.817 19.0794C438.016 22.3988 440.313 26.1955 441.737 30.4044C443.458 26.8308 445.688 23.669 448.469 20.9653C456.234 13.4165 467.056 10 480.151 10C493.392 10 504.157 13.2206 511.244 20.7424C518.317 28.1228 521.351 39.0578 521.351 52.4736V150.43H483.973V147.579C480.068 149.508 475.529 150.43 470.51 150.43C460.51 150.43 452.18 146.581 445.98 138.939L445.971 138.928L445.962 138.917C445.066 137.8 444.244 136.62 443.493 135.379V150.43H404.842V104.227C404.842 101.333 404.272 99.7656 403.721 98.9648L403.671 98.8916L403.623 98.8166C403.576 98.7429 403.494 98.6253 403.164 98.4859C403.054 98.4392 402.916 98.3907 402.745 98.3451V150.43H364.003V133.393C362.77 135.435 361.346 137.321 359.723 139.04C352.283 146.918 341.471 150.43 328.255 150.43C315.039 150.43 304.228 146.918 296.788 139.04C295.165 137.321 293.741 135.435 292.507 133.393V150.43H222.659V112.576L215.625 150.43H179.795L175.812 124.29V150.43H74.4015V135.455ZM139.25 145.43V120.508H108.143V91.7663H135.339V67.0265H108.143V39.8308H139.796V15H79.4015V145.43H139.25ZM138.434 44.8308H113.143V62.0265H138.434V44.8308ZM138.434 96.7663H113.143V115.508H138.434V96.7663ZM143.434 145.43H170.812V58.2948L184.091 145.43H211.469L227.659 58.2948V145.43H255.036V15H211.287L199.372 79.6693L187.275 15H143.434V145.43ZM287.507 15H258.765V145.43H287.507V15ZM292.507 119.749C296.339 136.87 308.255 145.43 328.255 145.43C348.256 145.43 360.172 136.87 364.003 119.749C364.911 115.693 365.365 111.155 365.365 106.137V15H336.623V107.774C336.623 111.595 336.017 114.475 334.804 116.415C333.652 118.356 331.469 119.326 328.255 119.326C325.042 119.326 322.828 118.386 321.616 116.506C320.464 114.626 319.887 111.777 319.887 107.956V15H291.146V106.137C291.146 111.155 291.599 115.693 292.507 119.749ZM369.003 145.43H397.745V93.1307H400.747C401.459 93.1307 402.125 93.1732 402.745 93.2582C405.132 93.5857 406.83 94.5437 407.841 96.1322C409.175 98.0726 409.842 100.771 409.842 104.227V145.43H438.493V103.863C438.493 99.6896 438.039 96.1348 437.131 93.1989C436.483 91.1019 435.603 89.3207 434.491 87.8552C433.081 85.9644 431.281 84.3615 429.092 83.0465C427.139 81.8735 424.876 80.9297 422.303 80.215C424.881 79.499 427.147 78.5597 429.103 77.3973C431.287 76.0987 433.083 74.5215 434.491 72.6657C435.603 71.175 436.483 69.3738 437.131 67.262C438.039 64.3055 438.493 60.7404 438.493 56.5666V41.6499C438.493 41.156 438.483 40.6676 438.463 40.1847C438.172 33.1379 435.757 27.2594 431.217 22.5493C426.366 17.5164 420.242 15 412.844 15H369.003V145.43ZM437.131 77.2947C436.14 78.374 435.046 79.3516 433.859 80.2326C435.046 81.1235 436.14 82.1127 437.131 83.2051V77.2947ZM442.131 107.774C442.131 112.915 442.585 117.543 443.493 121.658C444.749 127.349 446.872 132.059 449.863 135.789C455.077 142.216 461.96 145.43 470.51 145.43C475.942 145.43 480.43 144.221 483.973 141.802C485.927 140.469 487.594 138.767 488.973 136.698V145.43H516.351V78.7597H477.786V101.499H487.609V107.774C487.609 111.595 487.003 114.445 485.79 116.324C484.638 118.204 482.455 119.144 479.241 119.144C476.028 119.144 473.814 118.204 472.602 116.324C471.449 114.445 470.873 111.595 470.873 107.774V52.4736C470.873 44.894 473.966 41.1042 480.151 41.1042C486.396 41.1042 489.519 44.894 489.519 52.4736V70.2099H516.351V52.4736C516.351 39.6792 513.44 30.2502 507.619 24.1865C501.859 18.0622 492.703 15 480.151 15C467.902 15 458.503 18.1834 451.955 24.5503C447.833 28.5574 445.008 33.9215 443.481 40.6426C443.405 40.9751 443.333 41.3108 443.264 41.6499C442.509 45.348 442.131 49.441 442.131 53.9289V107.774ZM476.827 113.648C476.861 113.691 476.933 113.755 477.125 113.837C477.444 113.972 478.092 114.144 479.241 114.144C480.394 114.144 481.023 113.971 481.311 113.847C481.444 113.789 481.496 113.747 481.505 113.74C481.508 113.737 481.51 113.735 481.514 113.731C481.517 113.727 481.521 113.721 481.527 113.711L481.557 113.662L481.589 113.614C482.029 112.932 482.609 111.236 482.609 107.774V106.499H475.873V107.774C475.873 111.165 476.399 112.903 476.827 113.648ZM475.873 73.7597H484.519V52.4736C484.519 49.2445 483.834 47.7523 483.318 47.1262C482.955 46.6854 482.22 46.1042 480.151 46.1042C478.128 46.1042 477.42 46.6745 477.067 47.1077C476.554 47.7354 475.873 49.2356 475.873 52.4736V73.7597ZM40.4675 114.624L40.4777 114.606C41.2122 113.296 41.9304 110.332 41.9304 104.864V55.657C41.9304 50.0847 41.2333 47.1239 40.5483 45.8786L40.5451 45.8727C40.4706 45.7367 40.1842 45.2138 38.7419 44.9645V115.549C40.0959 115.301 40.3725 114.797 40.4545 114.648L40.4574 114.642L40.4675 114.624ZM38.7419 120.594C38.1707 120.658 37.5652 120.69 36.9253 120.69H33.7419V39.8308H36.9253C37.5649 39.8308 38.1704 39.8618 38.7419 39.9237C41.7461 40.2494 43.8086 41.4312 44.9294 43.469C46.2634 45.8945 46.9304 49.9572 46.9304 55.657V104.864C46.9304 110.503 46.2331 114.566 44.8384 117.052C43.721 119.084 41.6888 120.264 38.7419 120.594ZM403.652 45.5616L403.623 45.5167C403.576 45.4431 403.494 45.3254 403.164 45.186C403.054 45.1393 402.916 45.0908 402.745 45.0452V61.8234C402.937 61.7753 403.092 61.7233 403.215 61.673C403.556 61.5329 403.631 61.4187 403.659 61.375L403.691 61.3276L403.721 61.2832C404.255 60.5061 404.842 58.897 404.842 55.839V51.0183C404.842 48.1375 404.277 46.4994 403.681 45.6058L403.652 45.5616ZM402.745 66.9028C402.125 66.9852 401.459 67.0265 400.747 67.0265H397.745V39.8308H400.747C401.459 39.8308 402.125 39.8733 402.745 39.9584C405.132 40.2859 406.83 41.2438 407.841 42.8323C409.175 44.8334 409.842 47.562 409.842 51.0183V55.839C409.842 59.4165 409.175 62.1755 407.841 64.1159C406.83 65.6562 405.132 66.5852 402.745 66.9028Z" fill="black"/>
</svg>
