<svg width="1140" height="228" viewBox="0 0 1140 228" fill="none" xmlns="http://www.w3.org/2000/svg">
<path fill-rule="evenodd" clip-rule="evenodd" d="M146.231 163.672C144.287 164.976 142.021 165.761 139.434 166.029C134.336 166.556 127.991 165.07 120.4 161.572C114.478 158.843 107.798 154.89 100.36 149.711C99.1489 148.869 97.918 147.993 96.667 147.085L96.4534 146.93C97.8623 146.303 99.2856 145.741 100.724 145.246C101.39 145.016 102.059 144.801 102.731 144.6C108.91 142.751 115.353 142.099 122.06 142.644C121.832 141.976 121.614 141.317 121.406 140.666C119.606 135.044 118.542 130.098 118.213 125.83C118.157 125.099 118.102 124.309 118.05 123.46C117.759 118.782 117.52 112.318 117.334 104.07C117.202 99.5289 117.361 95.6112 117.813 92.317L117.835 92.1572C118.132 90.0438 118.552 88.1902 119.092 86.5964C120.035 83.9562 121.145 81.3008 122.422 78.6302C123.129 77.1508 123.887 75.6667 124.697 74.178C129.799 77.272 134.339 80.6543 138.317 84.325C138.89 84.8535 139.451 85.3879 140 85.9283C144.129 89.9896 147.6 94.3884 150.413 99.1248C156.201 108.869 159.352 118.833 159.864 129.017C160.349 137.967 159.043 145.604 155.947 151.927C154.127 155.642 151.69 158.904 148.634 161.713C148.248 162.068 147.852 162.415 147.446 162.756C147.056 163.085 146.651 163.391 146.231 163.672ZM140.043 136.513L140.566 138.047C140.928 135.828 141.063 133.195 140.892 130.045L140.89 130.009L140.888 129.973C140.622 124.673 139.286 119.233 136.61 113.573C136.773 118.194 136.957 121.775 137.157 124.373C137.361 127.027 138.161 130.993 140.043 136.513Z" fill="black"/>
<path d="M247.245 136.12C247.6 136.611 247.962 137.1 248.333 137.589L256.465 134.842C256.322 133.807 256.183 132.772 256.049 131.735C255.839 130.114 255.64 128.49 255.453 126.863C254.564 119.135 253.93 111.343 253.552 103.489L253.547 103.369C253.288 97.954 253.151 92.5088 253.136 87.0336L253.135 87.0052C253.131 85.4866 253.137 83.9656 253.151 82.4424L253.154 82.1896C253.18 79.6186 253.233 77.041 253.312 74.4568C253.336 73.6965 253.362 72.9357 253.39 72.1743L253.391 72.125C253.478 69.7742 253.587 67.418 253.718 65.0564C252.523 65.6539 251.388 66.2784 250.312 66.9299L250.297 66.9389C247.421 68.6821 244.972 70.6189 242.948 72.7493C240.237 75.6799 238.442 78.1343 237.563 80.1124C237.032 81.3128 236.59 82.7721 236.238 84.4904C235.281 89.1697 234.99 95.7696 235.365 104.29C235.832 113.524 238.678 122.455 243.9 131.083C244.924 132.773 246.039 134.453 247.245 136.12Z" fill="black"/>
<path fill-rule="evenodd" clip-rule="evenodd" d="M1027.08 156.633C1029.15 157.99 1031.31 159.335 1033.55 160.668C1039.78 164.329 1045.98 166.31 1052.17 166.611C1054.65 166.731 1057.12 166.582 1059.6 166.162C1071.69 164.184 1078.46 158.799 1079.93 150.007C1080.53 146.421 1080.66 142.975 1080.33 139.669C1079.85 134.87 1078.4 130.367 1075.97 126.16C1073.26 121.764 1068.65 117.295 1062.13 112.752C1060.18 111.373 1058.05 110.121 1055.73 108.997C1054.94 108.613 1054.13 108.245 1053.3 107.891C1049.96 106.473 1046.28 105.293 1042.26 104.352C1040.38 103.913 1038.43 103.526 1036.41 103.191C1036.67 109.581 1037.11 115.951 1037.72 122.303C1037.73 122.473 1037.75 122.643 1037.76 122.813C1037.99 125.104 1038.23 127.391 1038.5 129.676C1035.16 130.286 1031.57 131.59 1027.71 133.588C1026.45 134.245 1025.15 134.976 1023.83 135.782C1023.16 136.196 1022.47 136.629 1021.78 137.082C1020.86 137.68 1019.94 138.312 1019 138.979C1017.68 139.91 1016.34 140.908 1014.98 141.974C1013.86 142.848 1012.73 143.768 1011.57 144.732C1013.61 146.596 1015.8 148.439 1018.14 150.261C1020.91 152.415 1023.89 154.539 1027.08 156.633ZM1049.35 147.009L1059.43 145.166L1058.14 134.047C1058.86 134.819 1059.35 135.451 1059.67 135.931C1061.18 138.662 1061.89 141.811 1061.3 146.109C1061.16 146.179 1060.97 146.257 1060.76 146.34C1059.87 146.689 1058.5 147.089 1056.53 147.412L1056.48 147.421L1056.42 147.43C1054.33 147.785 1052.01 147.753 1049.35 147.009Z" fill="black"/>
<path d="M1035.94 83.8557C1035.9 88.4698 1035.98 93.1199 1036.19 97.806L1036.65 97.3757C1036.94 97.1149 1037.22 96.854 1037.5 96.5932C1040.5 93.8251 1043.57 91.0571 1046.69 88.2891C1047.33 87.7249 1047.97 87.1607 1048.61 86.5965L1048.83 86.4033C1049.09 86.1684 1049.36 85.9333 1049.63 85.6979L1050.2 85.1842C1051.82 83.7493 1053.42 82.3037 1055 80.8473C1057.03 78.9717 1059.04 77.0783 1061.03 75.1671C1060.24 74.5536 1059.42 73.9573 1058.58 73.3782C1057.57 72.6785 1056.51 72.0038 1055.42 71.3542C1051.81 69.2164 1047.79 67.35 1043.33 65.7549C1041.3 65.0258 1039.17 64.3534 1036.96 63.7377C1036.7 66.507 1036.5 69.2898 1036.34 72.0862C1036.33 72.2598 1036.32 72.4335 1036.31 72.6072C1036.11 76.1502 1035.99 79.715 1035.95 83.3016C1035.95 83.4862 1035.95 83.6709 1035.94 83.8557Z" fill="black"/>
<path d="M1001.24 74.9473C999.145 77.7809 997.377 80.7198 995.939 83.764L995.919 83.8064C994.835 86.1061 993.939 88.4659 993.231 90.8857C991.803 95.7686 991.139 100.896 991.241 106.268C991.379 111.705 992.349 116.826 994.151 121.633C994.174 121.695 994.198 121.757 994.222 121.819L994.25 121.895L994.287 121.991C995.449 125.011 996.942 127.905 998.766 130.675C1000.14 132.757 1001.69 134.769 1003.44 136.71C1003.61 136.342 1003.77 135.97 1003.92 135.593C1005.29 132.273 1006.17 128.579 1006.57 124.512C1006.64 123.791 1006.7 123.058 1006.74 122.313L1007.73 84.0688C1007.76 82.6664 1007.58 81.0917 1007.18 79.3447C1007.17 79.2915 1007.16 79.238 1007.15 79.1845C1007.13 79.1065 1007.11 79.0281 1007.09 78.9495C1006.92 78.2412 1006.72 77.5055 1006.48 76.7422C1005.96 75.0675 1005.28 73.2603 1004.43 71.3207C1003.26 72.3464 1002.19 73.5553 1001.24 74.9473Z" fill="black"/>
<path fill-rule="evenodd" clip-rule="evenodd" d="M710.606 5.84866L701.167 0.403198L691.701 5.80038C686.918 8.52746 682.401 11.504 678.25 14.7519L653.036 15.4012C619.753 16.2583 590.951 14.599 566.481 10.5897L553.715 8.49805L547.09 19.609C543.368 25.8506 540.084 32.3048 537.238 38.9654C530.284 36.3058 523.562 33.259 517.067 29.8263C508.239 25.0843 499.449 20.3423 490.694 15.6004L478.024 8.73752L467.998 19.0869C463.648 23.5776 459.803 27.5968 456.472 31.1382C456.108 30.8511 455.754 30.564 455.411 30.277C450.12 25.6822 443.934 21.0845 436.975 16.4707L423.758 7.70923L412.774 19.1451C411.429 20.545 409.991 22.0218 408.458 23.5758L401.89 8.24968L384.968 14.4756C369.306 20.2382 356.953 25.2807 348.367 29.5682C345.149 31.1496 341.857 33.0137 338.737 35.2353L338.708 35.2254C330.66 32.4502 323.044 29.484 315.851 26.3331C309.136 23.3912 303.295 20.1539 298.252 16.6719L288.304 9.80286L277.867 15.9043C263.551 24.2735 249.272 32.6796 235.029 41.1223C220.948 49.4398 206.83 57.6842 192.676 65.8557L192.326 66.0578C189.854 62.4888 187.177 59.0507 184.289 55.7487C164.064 32.54 134.246 19.1574 97.6971 13.5283L89.8146 12.3143L0.0585938 79.4267L39.9521 78.6902L56.8273 95.3799C59.6331 98.1548 62.0855 102.607 62.8032 110.604C63.5522 118.95 63.6789 127.976 63.1387 137.705L21.0891 182.048L52.9539 189.79C80.5342 196.492 103.865 204.801 123.162 214.551L134.451 220.255L202.101 162.483C205.316 167.772 208.972 172.724 213.093 177.316L213.107 177.331L213.121 177.346C233.753 200.231 262.486 212.741 297.061 216.483L307.98 217.665L314.454 208.793C318.353 203.449 322.288 198.142 326.259 192.871L326.297 192.822L326.334 192.772C327.333 191.428 328.332 190.081 329.331 188.733C337.648 193.071 345.965 197.373 354.282 201.64L354.341 201.67L354.399 201.7C362.825 205.949 371.324 210.235 379.897 214.558L396.307 222.834L405.123 206.707C407.411 202.522 409.721 198.336 412.052 194.15C413.305 195.259 414.58 196.396 415.877 197.56C420.105 201.353 423.834 205.305 427.093 209.409L441.725 227.835L472.952 189.803C479.913 202.194 491.124 210.522 504.575 215.439L520.089 221.109L527.862 206.534C530.808 201.011 533.718 195.487 536.591 189.963L537.003 189.19C539.459 191.061 542.123 192.559 544.862 193.725C552.207 197.253 559.517 200.746 566.792 204.204C574.236 207.741 581.753 211.278 589.341 214.815L601.912 220.673L611.323 210.486C618.257 202.98 625.104 195.848 631.864 189.087C634.55 186.43 637.183 183.985 639.761 181.743L659.281 188.51C669.802 192.157 679.618 196.025 688.743 200.103C697.091 203.834 703.332 207.818 707.872 211.83L721.947 224.269L746.841 196.74L758.066 203.957L788.677 223.198L799.091 208.656C802.437 203.986 805.782 199.342 809.127 194.727L873.839 220.207L907.131 181.666C910.35 189.266 913.489 196.914 916.548 204.61L925.334 226.72L944.953 213.261C951.213 208.966 957.472 204.709 963.731 200.488L963.751 200.474L963.771 200.46C969.873 196.322 975.942 192.151 981.978 187.946C994.975 198.817 1010.88 207.819 1029.18 215.21L1036.8 218.289L1044.27 214.842C1082.79 197.049 1111.65 168.9 1130.29 130.898L1134.84 121.619L1129.52 112.758C1124.01 103.58 1117.67 95.1635 1110.48 87.547C1108.64 85.5707 1106.76 83.6331 1104.84 81.7342L1139.52 48.5882L1106.43 40.0634C1081.24 33.5736 1062.75 25.592 1050.02 16.7205L1041.57 10.8257L1032.01 14.7005C1014.24 21.9099 998.203 32.2921 983.953 45.708C981.568 47.9411 979.227 50.2176 976.93 52.5373L972.879 50.459C961.616 44.6811 950.316 38.8666 938.979 33.0155L938.962 33.0068L890.664 7.91638L876.658 27.1369C872.605 23.1159 868.026 19.4974 862.978 16.2816L851.545 8.99986L817.651 35.9728L796.829 23.7079C791.686 20.5639 786.579 17.3848 781.508 14.1707L767.917 5.55669L757.182 17.5435C754.454 20.5902 751.726 23.6224 748.998 26.6403L721.953 12.1519C719.984 11.0974 718.054 10.0448 716.163 8.99413C714.272 7.94348 712.42 6.89497 710.606 5.84866ZM196.461 142.315C196.248 137.072 195.812 132.003 195.155 127.108C191.97 103.41 183.577 83.7885 169.975 68.2435C153.637 49.4876 128.58 37.5088 94.805 32.3069L58.6486 59.3418C68.4396 59.161 77.636 59.7297 86.2379 61.0479C86.7505 61.1265 87.261 61.2077 87.7695 61.2916C94.7091 62.4365 101.255 64.0774 107.408 66.2142C111.276 67.5575 114.988 69.0969 118.545 70.8323C118.876 70.9934 119.204 71.1562 119.532 71.3206L119.481 71.3409C113.885 73.5509 108.201 75.4188 102.43 76.9447C99.0149 77.8476 95.5692 78.6308 92.0927 79.2942C90.1378 79.6673 88.1732 80.0024 86.1988 80.2997C80.931 81.093 75.594 81.6167 70.1879 81.8708C75.0554 86.6849 78.4194 92.7876 80.28 100.179C80.9679 102.912 81.4503 105.821 81.7271 108.906C82.3964 116.363 82.6134 124.195 82.3781 132.4C82.2528 136.771 81.9992 141.248 81.6172 145.831L57.4397 171.328C64.6456 173.078 71.6058 174.943 78.3203 176.921C98.299 182.806 116.102 189.697 131.731 197.593L196.461 142.315ZM363.09 43.6329L363.024 43.6622C360.718 44.6951 358.644 45.6722 356.801 46.5937C349.182 50.3302 344.346 54.4697 342.295 59.0121C342.018 59.6475 341.786 60.3013 341.599 60.9739C341.388 61.7292 341.233 62.5081 341.134 63.3104C340.827 65.8024 341.061 68.521 341.835 71.4664C342.044 72.2631 342.292 73.0765 342.581 73.9064C342.763 74.4299 342.96 74.9601 343.174 75.4968L343.236 75.6526L343.382 76.0167V76.0186C345.941 82.4099 349.644 90.9179 354.493 101.543C362.729 119.743 366.257 132.094 365.08 138.593C365.011 138.975 364.925 139.336 364.824 139.677C364.604 140.416 364.28 141.22 363.852 142.088C362.099 145.648 358.599 150.297 353.353 156.038L353.351 156.041C351.359 158.221 349.115 160.558 346.619 163.052C343.931 165.738 340.951 168.606 337.679 171.657C338.697 172.188 339.715 172.719 340.732 173.248C345.666 175.817 350.599 178.374 355.533 180.918C358.007 182.193 360.481 183.466 362.955 184.735C371.381 188.985 379.88 193.271 388.452 197.593C391.326 192.335 394.234 187.077 397.176 181.818L397.573 181.109C400.724 175.614 403.801 170.119 406.805 164.624C403.658 163.919 400.466 163.064 397.229 162.059C396.626 161.872 396.022 161.679 395.415 161.481C394.199 161.085 392.977 160.667 391.749 160.228C390.572 159.791 389.425 159.327 388.306 158.836C384.985 157.379 381.92 155.684 379.109 153.751C378.739 153.496 378.373 153.238 378.011 152.975C379.514 151.02 380.938 149.131 382.283 147.307C384.394 144.443 386.31 141.739 388.033 139.195C393.934 130.48 397.553 123.644 398.892 118.687C400.677 112.008 398.793 103.002 393.238 91.6693C392.638 90.4451 391.995 89.1937 391.309 87.9153L389.88 85.3876C390.813 84.4873 391.718 83.6212 392.595 82.789C401.64 74.208 407.732 69.2496 410.871 67.9139C412.515 67.1946 414.647 67.2919 417.268 68.2058C420.253 69.2468 423.872 71.3475 428.125 74.5077L424.278 142.534C424.25 144.67 424.066 146.806 423.728 148.942C423.196 152.301 422.28 155.66 420.981 159.019C419.256 163.48 417.507 166.976 415.734 169.505C415.353 170.048 414.972 170.546 414.589 171C414.559 171.036 414.528 171.072 414.497 171.108C415.696 172.127 416.917 173.173 418.159 174.247C419.278 175.213 420.414 176.201 421.567 177.212C423.832 179.195 426.164 181.263 428.564 183.416C428.654 183.496 428.742 183.576 428.831 183.656C433.706 188.055 438.086 192.7 441.972 197.593L467.688 166.272C466.809 165.985 465.985 165.611 465.217 165.15C463.461 164.097 461.994 162.59 460.815 160.629C458.169 156.226 456.98 149.535 457.248 140.556L458.457 99.6743C458.75 92.0547 458.896 85.3876 458.896 79.6729C458.911 78.5335 458.979 77.4246 459.102 76.3463C459.593 72.0167 460.953 68.1802 463.182 64.8367C466.011 65.1797 468.991 66.0116 472.121 67.3326C472.679 67.5683 473.242 67.8195 473.81 68.0862C475.5 68.8801 477.233 69.8117 479.007 70.8811C479.483 71.1639 479.958 71.4492 480.433 71.737C485.74 74.9529 491.016 78.4773 496.261 82.3105C495.223 83.6625 494.237 85.0118 493.303 86.3586C490.746 90.0475 488.581 93.7168 486.81 97.3665C484.392 102.348 483.184 108.173 483.184 114.84L482.964 142.534C482.907 145.594 482.934 148.516 483.043 151.301C483.383 159.976 484.525 167.322 486.47 173.339C487.146 175.43 487.919 177.36 488.788 179.13C490.375 182.277 492.407 185.107 494.883 187.62C496.06 188.815 497.338 189.938 498.716 190.99C502.201 193.649 506.328 195.85 511.098 197.593C513.95 192.245 516.768 186.896 519.551 181.548L519.78 181.109L528.571 164.624C527.082 164.174 525.7 163.547 524.426 162.741C523.834 162.367 523.266 161.954 522.72 161.503C521.38 160.394 520.18 159.054 519.12 157.481C516.702 153.817 515.64 148.176 515.933 140.556L517.142 99.6743C517.345 93.7369 518.077 88.3317 519.338 83.4587C519.911 81.2417 520.594 79.135 521.386 77.1383C521.801 76.0937 522.245 75.0792 522.72 74.0948C524.314 70.7866 526.247 67.8186 528.518 65.1914C529.186 64.4183 529.884 63.6747 530.611 62.9606C532.207 61.3923 533.945 59.9662 535.824 58.6824C534.136 58.0894 532.458 57.4759 530.792 56.8421C525.796 54.9415 520.902 52.8573 516.11 50.5895C513.418 49.3155 510.758 47.9836 508.13 46.5937C499.265 41.8315 490.437 37.0692 481.645 32.307C477.103 36.996 473.146 41.1354 469.776 44.7254C469.256 45.2799 468.735 45.8354 468.211 46.3917C467.15 47.5189 466.082 48.6498 465.007 49.7844C463.246 51.6414 461.466 53.5085 459.665 55.3855C456.266 53.6857 453.121 51.8943 450.231 50.0112C447.639 48.323 445.253 46.561 443.071 44.7254C438.528 40.7691 432.997 36.6296 426.476 32.307C423.501 35.405 420.117 38.8318 416.325 42.5876C414.381 44.5121 412.331 46.523 410.173 48.6202C408.974 49.7863 407.741 50.979 406.475 52.1985L404.735 53.8901C403.442 55.1482 402.16 56.3954 400.891 57.6316C400.236 58.2696 399.584 58.9047 398.935 59.5368L398.848 59.621C393.719 64.6191 388.788 69.4348 384.056 74.0681C382.901 71.6858 381.987 69.4338 381.314 67.3123C380.097 63.4754 379.668 60.0651 380.028 57.0814C380.075 56.692 380.136 56.3099 380.209 55.935C380.902 52.4183 383.939 49.3278 389.321 46.6636C391.206 45.7305 393.379 44.8496 395.839 44.021C396.013 43.9625 396.188 43.9043 396.364 43.8463C395.969 42.8582 395.487 41.6797 394.918 40.3109L394.837 40.1171C394.551 39.4301 394.243 38.6963 393.915 37.9159C393.216 36.2573 392.421 34.3876 391.529 32.307C381.058 36.1596 372.385 39.5793 365.51 42.5661C364.677 42.928 363.87 43.2837 363.09 43.6329ZM325.255 50.595C327.641 51.4775 330.061 52.3417 332.514 53.1876C332.224 53.5253 331.934 53.8634 331.643 54.2018L331.536 54.3269C328.77 57.5444 325.946 60.7913 323.063 64.0674C322.707 64.4805 322.353 64.8932 322 65.3053C321.054 66.4088 320.115 67.509 319.182 68.6058C317.373 70.7321 315.59 72.846 313.832 74.9472C308.794 71.4598 303.807 68.5914 298.869 66.3422C296.275 65.1608 293.696 64.1502 291.13 63.3104C287.497 62.1214 283.891 61.2747 280.313 60.7704C280.226 61.6018 280.143 62.4484 280.064 63.3104C279.604 68.2975 279.273 73.7971 279.071 79.8089C279.043 80.6331 279.017 81.4669 278.994 82.3104H324.382V108.246H279.544C279.694 113.948 280.134 120.281 280.865 127.246C281.204 130.484 281.606 133.858 282.071 137.369L256.795 146.601C258.343 147.994 260.006 149.323 261.785 150.587C262.588 151.158 263.416 151.716 264.266 152.261C268.293 154.84 272.846 157.123 277.925 159.111C279.512 159.732 281.151 160.324 282.841 160.887C287.973 162.586 293.688 163.793 299.985 164.508C305.153 165.094 310.714 165.349 316.667 165.272C318.786 165.244 320.954 165.175 323.172 165.063C319.54 170.017 315.908 174.94 312.275 179.834L311.084 181.438C310.394 182.355 309.704 183.273 309.015 184.192C305.687 188.634 302.384 193.101 299.106 197.593C267.968 194.223 244.01 183.233 227.232 164.624C210.528 146.014 202.176 118.577 202.176 82.3104C208.305 78.772 214.427 75.22 220.542 71.6544C224.879 69.126 229.212 66.5906 233.542 64.0485L233.695 63.9586C237.368 61.8019 241.038 59.6401 244.706 57.4735C246.048 56.6779 247.391 55.8827 248.733 55.0878C253.374 52.3408 258.017 49.5978 262.665 46.8587C266.211 44.7688 269.76 42.6811 273.311 40.5957L274.128 40.1156C278.567 37.5092 283.01 34.9063 287.456 32.3069C293.611 36.5563 300.534 40.3661 308.227 43.7363C309.996 44.5113 311.787 45.2747 313.598 46.0266C317.391 47.6003 321.276 49.1231 325.255 50.595ZM322.22 146.087L337.367 145.327C339.214 143.376 340.814 141.6 342.178 139.993C344.422 137.349 345.611 135.638 346.196 134.738C346.065 133.798 345.794 132.408 345.276 130.496C344.803 128.749 344.176 126.757 343.382 124.508V127.246H299.975C300.247 129.691 300.557 132.234 300.907 134.874L302.334 145.652C308.032 146.285 314.63 146.469 322.22 146.087ZM555.181 45.3418C555.375 44.8978 555.571 44.4548 555.769 44.0129ZM555.769 44.0129C558.031 38.9793 560.577 34.0883 563.409 29.3397ZM563.409 29.3397C583.634 32.6535 606.355 34.4078 631.571 34.6028ZM631.571 34.6028C638.69 34.6578 646.008 34.5885 653.525 34.395ZM653.525 34.395C651.715 37.5891 649.982 40.6479 648.327 43.5712ZM648.327 43.5712C647.704 44.6711 647.092 45.7518 646.491 46.8134ZM646.491 46.8134C645.246 49.0134 643.989 51.2723 642.72 53.5899ZM642.72 53.5899C641.75 55.3629 640.772 57.1703 639.788 59.0121ZM639.788 59.0121C640.3 64.8594 640.842 70.7438 641.414 76.6653ZM641.414 76.6653C642.641 89.3663 644.003 102.238 645.502 115.28ZM645.502 115.28C647.7 134.402 645.612 148.652 639.238 158.03ZM639.238 158.03C637.96 158.923 636.678 159.855 635.392 160.826ZM635.392 160.826C631.313 163.905 627.196 167.373 623.039 171.23ZM623.039 171.23L623.022 171.246ZM623.022 171.246C621.509 172.65 619.991 174.106 618.468 175.614ZM618.468 175.614C615.002 179.079 611.519 182.635 608.018 186.281ZM608.018 186.281C604.486 189.959 600.936 193.73 597.367 197.593ZM597.367 197.593C589.821 194.076 582.348 190.56 574.948 187.043ZM574.948 187.043C567.548 183.526 560.112 179.973 552.639 176.383ZM552.639 176.383C549.892 175.268 547.759 173.764 546.24 171.87ZM546.24 171.87C546.149 171.757 546.06 171.642 545.973 171.525ZM545.973 171.525C543.42 168.096 542.785 163.452 544.067 157.59ZM544.067 157.59L544.12 157.253ZM544.12 157.253C544.509 154.779 544.908 152.305 545.314 149.831ZM545.314 149.831C545.732 147.289 546.159 144.747 546.594 142.205ZM546.594 142.205C547.547 137.003 548.463 131.801 549.342 126.599ZM549.342 126.599C554.508 133.378 559.905 139.266 565.532 144.266ZM565.532 144.266C568.602 146.994 571.741 149.457 574.948 151.656ZM574.948 151.656C583.507 157.454 592.326 162.179 601.406 165.831ZM601.406 165.831C601.963 166.055 602.522 166.276 603.082 166.492ZM603.082 166.492C605.479 167.443 607.679 167.554 609.68 166.826ZM609.68 166.826C609.702 166.817 609.724 166.809 609.747 166.801ZM609.747 166.801C611.266 166.232 612.672 165.177 613.962 163.635ZM613.962 163.635C616.125 161.059 617.257 156.817 617.356 150.909ZM617.356 150.909C617.397 148.415 617.255 145.623 616.929 142.534ZM616.929 142.534C615.83 132.424 614.438 122.386 612.753 112.422ZM612.753 112.422C611.208 103.289 609.756 94.0946 608.396 84.8384ZM608.396 84.8384C608.272 83.9963 608.149 83.1536 608.027 82.3104ZM608.027 82.3104C611.617 79.453 614.878 76.5957 617.808 73.7383ZM617.808 73.7383C619.123 72.4559 620.417 71.166 621.688 69.8687ZM621.688 69.8687C623.249 68.2758 624.776 66.6717 626.27 65.0564ZM626.27 65.0564C624.611 65.2352 622.95 65.3842 621.29 65.5036ZM621.29 65.5036C617.571 65.771 613.85 65.8897 610.126 65.8596ZM610.126 65.8596C606.355 65.8292 602.582 65.6461 598.806 65.3106ZM598.806 65.3106C593.642 64.8517 588.473 64.1076 583.3 63.0783ZM583.3 63.0783C578.303 62.0533 573.598 61.5615 569.183 61.6031ZM569.183 61.6031C567.645 61.6176 566.141 61.6968 564.673 61.8409ZM564.673 61.8409C558.312 62.4653 552.615 64.3064 547.583 67.3643ZM547.583 67.3643C549.56 59.7458 552.093 52.4048 555.181 45.3418ZM664.378 113.11C663.815 108.214 663.272 103.344 662.748 98.4978C664.256 101.18 665.9 103.831 667.661 106.445L667.677 106.469L667.693 106.493C675.737 118.352 676.256 126.201 674.645 131.667L674.634 131.701L674.624 131.736C673.135 136.861 669.817 142.422 663.46 148.189C665.801 137.357 665.79 125.391 664.378 113.11ZM816.174 61.4299C816.749 61.4247 817.316 61.4246 817.873 61.4295C825.27 61.4951 831.114 62.4477 835.406 64.2872C836.04 65.8576 836.645 67.4164 837.22 68.9635C845.028 89.9573 847.445 108.806 844.471 125.511C844.321 126.355 844.156 127.194 843.979 128.028C842.315 135.968 839.624 143.491 835.904 150.597C835.15 152.036 834.354 153.459 833.517 154.864C832.133 157.184 830.635 159.457 829.022 161.684L829.001 161.713C827.178 164.226 825.209 166.681 823.094 169.075C822.939 169.25 822.783 169.425 822.627 169.6C821.438 170.928 820.202 172.238 818.921 173.53C817.82 174.641 816.684 175.739 815.515 176.823L868.266 197.593L894.751 166.932C886.985 169.056 881.051 169.386 876.948 167.921L847.715 158.03C851.33 152.286 854.622 146.714 857.592 141.314C859.336 138.143 860.969 135.032 862.491 131.979L862.617 131.727C866.781 123.35 870.107 115.419 872.595 107.935C872.661 107.737 872.726 107.54 872.791 107.343C872.834 107.211 872.877 107.08 872.919 106.948C874.679 101.522 875.994 96.3324 876.864 91.3799C877.355 88.5811 877.704 85.8579 877.912 83.2104C878.159 80.0555 878.204 77.0081 878.047 74.0681L888.487 59.7814C891.117 61.3745 893.757 62.9675 896.406 64.5606C898.14 65.6033 899.878 66.6461 901.62 67.6888L902.521 68.2274C903.081 68.5625 903.641 68.8975 904.202 69.2326C906.766 70.7282 909.33 72.2151 911.894 73.6933C913.852 74.8223 915.81 75.9461 917.768 77.065C918.521 77.4954 919.274 77.9252 920.028 78.3541C919.644 78.6029 919.26 78.8519 918.876 79.1011C914.064 82.2275 909.282 85.3854 904.532 88.5746C904.206 88.7891 903.88 89.0033 903.553 89.2175L902.256 90.0682C900.045 91.5162 897.834 92.9575 895.624 94.3919C893.465 95.7929 891.306 97.1873 889.146 98.5753C890.439 101.08 891.722 103.591 892.996 106.107C899.132 118.227 905.05 130.477 910.751 142.856C914.231 150.413 917.629 158.018 920.947 165.671C922.951 170.293 924.924 174.931 926.869 179.588C929.363 185.561 931.808 191.563 934.205 197.593C939.566 193.915 944.927 190.264 950.288 186.639L953.107 184.735L953.461 184.495C958.386 181.153 963.289 177.79 968.17 174.404C969.488 173.49 970.804 172.575 972.119 171.657C968.882 171.016 966.065 169.954 963.669 168.472C963.579 168.416 963.49 168.36 963.401 168.303L963.323 168.253C963.276 168.222 963.228 168.191 963.18 168.16C960.335 166.286 958.113 163.788 956.514 160.668L956.297 160.251C956.203 160.071 956.109 159.891 956.016 159.711C952.229 152.419 948.629 145.041 945.215 137.577C944.653 136.348 944.097 135.117 943.545 133.884C942.235 130.956 940.953 128.015 939.699 125.061C935.694 115.424 931.596 105.81 927.406 96.2193C926.309 93.7061 925.204 91.1945 924.094 88.6845L924.957 88.2148C925.317 88.0193 925.677 87.8239 926.036 87.6285C931.89 84.4515 937.772 81.3032 943.683 78.1838L951.181 74.2297C955.493 71.9563 959.835 69.6679 964.207 67.3644L963.609 67.0579C956.944 63.6383 950.266 60.2059 943.575 56.7608C939.138 54.4764 934.696 52.1863 930.248 49.8906L896.4 32.307L875.739 60.6606C874.618 57.2542 873.164 54.0318 871.377 50.9934C869.657 48.0699 867.629 45.3168 865.293 42.7339C861.805 38.8788 857.631 35.4032 852.77 32.307L816.174 61.4299ZM815.461 147.9C820.368 140.465 823.617 132.556 825.382 124.132L825.39 124.097L825.397 124.062C827.898 112.342 826.959 98.0169 821.162 80.5532C819.79 80.4622 818.193 80.4126 816.344 80.4291L813.204 80.4572C813.125 82.6913 813.085 84.9574 813.085 87.2558V87.4019L812.422 130.519L812.419 130.629C812.152 140.49 813.112 145.344 813.738 147.042C813.787 147.148 813.828 147.225 813.859 147.277C813.895 147.294 813.942 147.314 814 147.336L815.461 147.9ZM794.188 80.6269C794.32 76.4199 794.579 72.292 794.964 68.2435C795.289 65.2108 796.112 62.1512 797.434 59.065C798.793 55.8886 800.681 52.684 803.097 49.451L787.052 39.9997L786.656 39.7579C781.515 36.613 776.408 33.4333 771.336 30.2188C766.94 35.1276 762.544 39.9997 758.148 44.8352L757.887 45.1185C753.58 49.7877 749.308 54.4922 745.071 59.2318C748.294 61.7228 751.518 64.104 754.742 66.3752C756.638 67.6817 757.892 69.3035 758.504 71.2404C758.955 72.6705 759.057 74.2724 758.808 76.0462C760.415 94.0076 761.01 110.283 760.594 124.874C760.479 128.912 760.287 132.82 760.017 136.6C756.068 141.387 752.496 145.377 749.3 148.568C747.167 150.699 745.201 152.473 743.402 153.892C741.546 155.356 739.869 156.442 738.37 157.149L738.367 157.151C736.555 157.979 734.147 158.076 731.146 157.44C729.432 157.078 727.525 156.476 725.424 155.637C723.147 154.727 720.642 153.537 717.91 152.066C715.319 150.672 712.522 149.025 709.521 147.127C709.247 146.953 708.972 146.778 708.694 146.601C709.515 145.218 710.313 143.826 711.09 142.426C716.28 133.069 720.5 123.324 723.75 113.192C727.56 101.469 729.355 88.9042 729.135 75.4967C711.259 69.7087 700.452 63.005 696.716 55.3854C695.94 53.7563 695.571 52.0763 695.611 50.3453C695.667 47.852 696.568 45.2531 698.315 42.5484C700.259 39.5399 703.248 36.4006 707.283 33.1306C708.994 31.7439 710.893 30.3337 712.98 28.9C710.929 27.8011 708.914 26.7021 706.936 25.6031C704.958 24.5041 703.016 23.4052 701.112 22.3062C690.413 28.4057 682.605 35.165 677.688 42.584C667.722 57.6216 669.632 75.3695 683.418 95.8278C692.963 109.902 696.28 123.015 693.369 135.167C693.219 135.794 693.052 136.418 692.869 137.039C692.866 137.049 692.864 137.058 692.861 137.067C692.849 137.108 692.837 137.148 692.826 137.189C691.131 142.944 688.296 148.401 684.321 153.559C683.602 154.492 682.846 155.415 682.053 156.328C677.673 161.369 672.157 166.112 665.505 170.558C672.803 173.088 679.811 175.732 686.528 178.488C689.925 179.882 693.248 181.305 696.496 182.757C706.167 187.08 714.153 192.025 720.453 197.593L757.819 156.272C757.122 160.496 756.298 164.628 755.348 168.669C754.601 171.846 753.776 174.967 752.873 178.031L768.259 187.922L783.645 197.593C786.055 194.228 788.465 190.877 790.875 187.54C792.348 185.501 793.821 183.467 795.294 181.438L795.815 180.724C799.125 176.186 802.434 171.622 805.744 167.032L807.163 165.063C805.72 164.507 804.394 163.823 803.183 163.012C803.122 162.971 803.061 162.93 803.001 162.888L802.946 162.85L802.885 162.808C802.847 162.781 802.809 162.755 802.771 162.728C801.385 161.743 800.157 160.584 799.089 159.25C797.93 157.803 796.958 156.151 796.173 154.293C794.048 149.018 793.133 140.959 793.426 130.116L794.085 87.2558C794.085 85.0247 794.119 82.8152 794.188 80.6269ZM717.639 49.9822C717.474 49.8799 717.315 49.7798 717.163 49.6818C718.749 48.2241 720.9 46.5104 723.738 44.5615L747.633 28.1484C746.468 29.4353 745.303 30.7195 744.138 32.0011C739.69 36.8203 735.279 41.6762 730.905 46.569L724.649 53.5681C721.775 52.3172 719.46 51.1121 717.639 49.9822ZM735.762 135.236C737.427 133.58 739.311 131.563 741.422 129.152C741.568 126.016 741.661 122.778 741.7 119.436C739.964 124.802 737.984 130.069 735.762 135.236ZM990.174 66.1669C991.673 64.6476 993.193 63.1486 994.733 61.6697C994.959 61.452 995.187 61.2347 995.414 61.0178C995.926 60.5302 996.44 60.0448 996.956 59.5616C1002.37 54.4599 1008.06 49.8726 1014.02 45.7996C1015.94 44.4833 1017.9 43.2208 1019.88 42.012C1020.93 41.3744 1021.98 40.7517 1023.04 40.1439C1028.22 37.1748 1033.6 34.5625 1039.16 32.307C1050.11 39.9398 1063.95 46.5892 1080.68 52.2554C1087.24 54.4754 1094.24 56.5445 1101.69 58.4626L1076.85 82.2006C1077.63 82.8215 1078.39 83.4482 1079.16 84.0807C1083.29 87.5069 1087.27 91.1025 1091.1 94.8674C1092.98 96.7217 1094.83 98.6171 1096.63 100.553C1102.86 107.147 1108.39 114.474 1113.23 122.533C1109.16 130.821 1104.57 138.574 1099.45 145.791C1097.84 148.057 1096.18 150.27 1094.47 152.431C1085.28 164.025 1074.59 174.098 1062.39 182.651L1062.31 182.712C1060.97 183.649 1059.61 184.568 1058.24 185.469C1051.38 189.966 1044.06 194.008 1036.3 197.593C1021.32 191.544 1008.63 184.549 998.225 176.611C988.923 169.514 981.449 161.661 975.803 153.054L975.776 153.012C965.577 137.445 961.354 119.409 963.108 98.905C966.846 93.4901 970.77 88.2607 974.879 83.2171C975.654 82.2665 976.435 81.3226 977.222 80.3852C981.14 75.7233 985.22 71.2243 989.464 66.8886L989.754 66.5924C989.894 66.4504 990.034 66.3086 990.174 66.1669ZM892.169 147.94C889.507 142.204 886.798 136.497 884.042 130.819C881.616 136.287 878.88 141.848 875.857 147.494L882.721 149.816C882.871 149.82 883.101 149.82 883.422 149.802C884.674 149.732 886.725 149.429 889.737 148.605L892.169 147.94ZM545.837 90.6588L564.453 115.081C571.431 124.236 578.534 131.07 585.646 135.954C589.693 138.693 593.777 141.139 597.899 143.301C596.863 133.996 595.569 124.76 594.019 115.591C592.309 105.478 590.71 95.2925 589.224 85.0355L588.973 83.303C585.844 82.8649 582.718 82.3348 579.592 81.713L579.537 81.702L579.482 81.6907C568.403 79.418 561.739 80.9953 557.451 83.6013L545.837 90.6588ZM346.3 135.934C346.3 135.934 346.299 135.912 346.301 135.87C346.302 135.914 346.3 135.934 346.3 135.934ZM598.055 153.696C598.055 153.696 598.062 153.666 598.08 153.611C598.065 153.671 598.055 153.696 598.055 153.696Z" fill="black"/>
<path d="M706.935 25.6032C704.957 24.5042 703.016 23.4053 701.111 22.3063C668.728 40.7691 662.83 65.2763 683.417 95.8279C693.455 110.627 696.605 124.365 692.868 137.04C689.205 149.641 680.084 160.814 665.504 170.558C676.494 174.368 686.824 178.434 696.495 182.757C706.166 187.08 714.152 192.025 720.453 197.593L757.818 156.272C756.573 163.818 754.924 171.071 752.873 178.031L768.258 187.922L783.644 197.593C787.527 192.172 791.41 186.787 795.293 181.438C799.249 176.017 803.206 170.558 807.162 165.063C802.034 163.085 798.37 159.495 796.172 154.293C794.048 149.018 793.132 140.959 793.425 130.116L794.084 87.2559C794.084 80.7353 794.377 74.3978 794.963 68.2435C795.623 62.0893 798.334 55.8251 803.096 49.451L787.051 39.9998C781.776 36.7761 776.537 33.5158 771.335 30.2189C766.94 35.1277 762.544 39.9998 758.148 44.8353C753.752 49.5976 749.393 54.3964 745.07 59.2319C748.294 61.7229 751.517 64.1041 754.741 66.3753C758.038 68.6465 759.393 71.8702 758.807 76.0463C760.859 98.9783 761.261 119.163 760.016 136.6C750.711 147.883 743.495 154.733 738.366 157.151C733.238 159.495 723.347 155.979 708.694 146.601C714.995 135.977 720.013 124.841 723.75 113.192C727.56 101.469 729.354 88.9043 729.135 75.4968C711.258 69.7088 700.451 63.0051 696.715 55.3855C693.052 47.6927 698.473 38.8642 712.98 28.9001C710.928 27.8012 708.913 26.7022 706.935 25.6032Z" fill="white"/>
<path d="M816.173 61.4298L852.769 32.3069C864.272 39.6334 871.928 49.0846 875.738 60.6605L896.398 32.3069L930.247 49.8905C941.603 55.7517 952.923 61.5763 964.205 67.3643C957.392 70.9543 950.651 74.5076 943.984 78.0244C937.317 81.5411 930.687 85.0944 924.093 88.6844C929.441 100.773 934.643 112.899 939.698 125.061C944.827 137.149 950.432 149.018 956.513 160.667C959.516 166.529 964.718 170.192 972.118 171.657C965.817 176.053 959.48 180.412 953.106 184.735C946.805 188.984 940.504 193.27 934.203 197.593C920.722 163.671 905.703 130.665 889.145 98.5752C894.274 95.2783 899.402 91.9447 904.531 88.5745C909.659 85.1311 914.825 81.7242 920.026 78.354C914.751 75.3502 909.476 72.3097 904.201 69.2325C898.926 66.0821 893.688 62.9317 888.486 59.7813L878.046 74.068C879.218 96.0476 869.107 124.035 847.714 158.03L876.947 167.921C881.049 169.386 886.984 169.056 894.75 166.932L868.265 197.593L815.514 176.822C830.606 162.829 840.094 146.564 843.977 128.028C847.934 109.492 845.076 88.2448 835.405 64.2871C830.789 62.309 824.379 61.3565 816.173 61.4298Z" fill="white"/>
<path fill-rule="evenodd" clip-rule="evenodd" d="M1039.16 32.3069C1054.4 42.9303 1075.24 51.6489 1101.69 58.4626L1076.85 82.2005C1083.88 87.8419 1090.48 93.9595 1096.63 100.553C1102.86 107.147 1108.39 114.474 1113.23 122.533C1096.52 156.601 1070.88 181.621 1036.3 197.593C983.694 176.346 959.297 143.45 963.107 98.9049C973.071 84.4717 984.354 71.3572 996.955 59.5615C1009.56 47.6926 1023.62 38.6077 1039.16 32.3069ZM1036.96 63.7376C1035.93 74.874 1035.68 86.2301 1036.19 97.806C1040.22 94.0694 1044.36 90.3329 1048.61 86.5964C1052.86 82.8599 1057 79.0501 1061.03 75.167C1054.72 70.2582 1046.7 66.4485 1036.96 63.7376ZM1036.41 103.191C1036.77 112.056 1037.47 120.884 1038.5 129.676C1030.88 131.068 1021.9 136.087 1011.57 144.732C1017.58 150.227 1024.91 155.539 1033.55 160.667C1042.27 165.796 1050.95 167.628 1059.6 166.162C1071.69 164.184 1078.46 158.799 1079.93 150.007C1081.39 141.216 1080.07 133.266 1075.97 126.16C1073.26 121.764 1068.65 117.294 1062.12 112.752C1055.6 108.136 1047.03 104.949 1036.41 103.191ZM1003.44 136.71C1005.34 132.534 1006.44 127.735 1006.74 122.313L1007.73 84.0687C1007.8 80.7718 1006.7 76.5224 1004.43 71.3206C1003.26 72.3463 1002.19 73.5552 1001.24 74.9472C994.354 84.2519 991.021 94.6922 991.24 106.268C991.534 117.844 995.6 127.991 1003.44 136.71Z" fill="white"/>
<path d="M626.27 65.0565C611.984 66.5951 597.66 65.9357 583.3 63.0783C569.014 60.1477 557.108 61.5764 547.584 67.3643C551.1 53.8103 556.375 41.1354 563.409 29.3397C589.345 33.5891 619.383 35.2742 653.525 34.395C651.034 38.7909 648.69 42.9304 646.492 46.8135C644.294 50.6965 642.059 54.7627 639.788 59.0121C641.4 77.4017 643.305 96.1576 645.503 115.28C647.7 134.402 645.612 148.652 639.238 158.03C632.425 162.792 625.501 168.653 618.468 175.614C611.507 182.574 604.474 189.9 597.367 197.593C589.821 194.076 582.348 190.56 574.948 187.043C567.548 183.526 560.112 179.973 552.639 176.383C544.873 173.233 542.015 166.968 544.067 157.59C544.873 152.462 545.715 147.333 546.594 142.205C547.547 137.003 548.463 131.801 549.342 126.599C557.328 137.076 565.863 145.428 574.948 151.656C584.033 157.81 593.411 162.756 603.082 166.492C607.331 168.177 610.958 167.225 613.962 163.635C617.039 159.972 618.028 152.938 616.929 142.534C615.83 132.424 614.438 122.386 612.753 112.422C611.068 102.458 609.493 92.421 608.027 82.3104C611.617 79.4531 614.878 76.5958 617.808 73.7384C620.739 70.8811 623.56 67.9871 626.27 65.0565Z" fill="white"/>
<path d="M396.365 43.8461C395.339 41.2819 393.728 37.4354 391.53 32.3069C375.997 38.0216 364.421 42.7838 356.802 46.5936C349.182 50.3301 344.347 54.4696 342.295 59.012C340.317 63.5545 340.61 69.0494 343.175 75.4967C345.739 81.944 349.512 90.626 354.494 101.542C363.213 120.811 366.656 133.523 364.824 139.677C362.993 145.831 353.945 156.491 337.68 171.657C346.105 176.053 354.531 180.412 362.956 184.735C371.382 188.984 379.88 193.27 388.452 197.593C391.456 192.098 394.497 186.603 397.574 181.108C400.724 175.614 403.802 170.119 406.805 164.624C401.897 163.525 396.878 162.06 391.749 160.228C386.621 158.323 382.042 155.905 378.012 152.975C389.954 137.442 396.915 126.013 398.893 118.687C400.871 111.287 398.343 101.03 391.31 87.9151L389.881 85.3875C400.431 75.2036 407.428 69.3791 410.872 67.9138C414.388 66.3752 420.14 68.5731 428.126 74.5076L424.279 142.534C424.206 148.029 423.107 153.524 420.982 159.019C418.858 164.514 416.696 168.543 414.498 171.108C418.894 174.844 423.583 178.947 428.565 183.416C433.547 187.885 438.016 192.611 441.973 197.593L467.689 166.272C460.289 163.855 456.809 155.282 457.248 140.556L458.457 99.6742C458.75 92.0546 458.897 85.3875 458.897 79.6728C458.97 73.9581 460.399 69.0127 463.183 64.8366C468.018 65.4227 473.294 67.4375 479.008 70.881C484.796 74.3245 490.547 78.1343 496.262 82.3104C492.379 87.3657 489.229 92.3843 486.811 97.3664C484.393 102.348 483.184 108.173 483.184 114.84L482.965 142.534C482.671 158.433 484.613 170.632 488.789 179.13C493.039 187.556 500.475 193.71 511.098 197.593C514.029 192.098 516.923 186.603 519.78 181.108L528.572 164.624C524.689 163.452 521.539 161.07 519.121 157.48C516.703 153.817 515.641 148.176 515.934 140.556L517.143 99.6742C517.802 80.4055 524.03 66.7415 535.825 58.6823C526.228 55.3121 516.996 51.2826 508.131 46.5936C499.266 41.8314 490.438 37.0691 481.646 32.3069C477.103 36.9959 473.147 41.1353 469.777 44.7253C466.48 48.2421 463.11 51.7954 459.666 55.3854C453.219 52.1617 447.687 48.6084 443.072 44.7253C438.529 40.769 432.998 36.6295 426.477 32.3069C421.129 37.875 414.462 44.5055 406.476 52.1984C398.563 59.8912 391.09 67.1811 384.057 74.068C380.54 66.8148 379.258 60.7704 380.21 55.9349C381.163 51.0994 386.548 47.0698 396.365 43.8461Z" fill="white"/>
<path fill-rule="evenodd" clip-rule="evenodd" d="M313.832 74.9472C302.403 67.0346 291.23 62.309 280.313 60.7704C279.654 67.0712 279.214 74.2512 278.994 82.3104H324.382V108.246H279.544C279.764 116.598 280.606 126.306 282.071 137.369L256.795 146.601C263.389 152.535 272.071 157.297 282.841 160.887C293.684 164.477 307.128 165.869 323.173 165.063C319.144 170.558 315.114 176.017 311.084 181.438C307.055 186.787 303.062 192.172 299.106 197.593C267.968 194.223 244.01 183.233 227.232 164.624C210.528 146.014 202.176 118.577 202.176 82.3104C216.389 74.1047 230.566 65.8257 244.706 57.4735C258.92 49.048 273.17 40.6591 287.456 32.3069C293.611 36.5563 300.534 40.3661 308.227 43.7363C315.92 47.1064 324.016 50.2569 332.515 53.1875C329.437 56.7775 326.287 60.4041 323.063 64.0673C319.913 67.7306 316.836 71.3572 313.832 74.9472ZM248.333 137.589L256.465 134.841C253.315 112.129 252.399 88.8676 253.718 65.0564C249.322 67.2544 245.732 69.8187 242.948 72.7493C240.237 75.6799 238.442 78.1343 237.563 80.1124C235.585 84.5816 234.852 92.6408 235.365 104.29C235.951 115.866 240.274 126.965 248.333 137.589Z" fill="white"/>
<path fill-rule="evenodd" clip-rule="evenodd" d="M81.7269 108.906C82.7526 120.335 82.7159 132.644 81.617 145.831L57.4395 171.328C86.0861 178.288 110.85 187.043 131.73 197.593L196.46 142.315C195.215 111.69 186.386 86.9993 169.975 68.2435C153.637 49.4876 128.58 37.5087 94.8047 32.3069L58.6483 59.3417C82.4595 58.9021 102.754 62.8951 119.532 71.3206C103.78 77.5481 87.3316 81.0649 70.1876 81.8708C76.8547 88.4646 80.7011 97.4763 81.7269 108.906ZM119.092 86.5964C120.557 82.4935 122.426 78.354 124.697 74.1779C136.053 81.0649 144.625 89.3805 150.413 99.1247C156.201 108.869 159.351 118.833 159.864 129.017C160.67 143.89 156.531 155.136 147.446 162.756C138.434 170.375 121.437 165.1 96.4532 146.93C104.512 143.34 113.048 141.912 122.059 142.644C119.861 136.197 118.579 130.592 118.213 125.83C117.847 121.068 117.554 113.814 117.334 104.07C117.114 96.5238 117.7 90.6992 119.092 86.5964Z" fill="white"/>
</svg>
