<?xml version="1.0" encoding="UTF-8" standalone="no"?>
<!DOCTYPE svg PUBLIC "-//W3C//DTD SVG 1.1//EN" "http://www.w3.org/Graphics/SVG/1.1/DTD/svg11.dtd">
<svg width="50px" height="50px" viewBox="0 0 24 24" version="1.1" xmlns="http://www.w3.org/2000/svg" xmlns:xlink="http://www.w3.org/1999/xlink" xml:space="preserve" xmlns:serif="http://www.serif.com/" style="fill-rule:evenodd;clip-rule:evenodd;stroke-linejoin:round;stroke-miterlimit:2;">
    <g transform="matrix(1.28925,0,0,1.28925,-1.90191,-3.22312)">
        <path d="M7.308,21.116C6.886,21.116 6.53,20.971 6.241,20.682C5.952,20.393 5.808,20.037 5.808,19.616C5.808,19.194 5.952,18.838 6.241,18.549C6.53,18.26 6.886,18.116 7.308,18.116C7.73,18.116 8.085,18.26 8.374,18.549C8.663,18.838 8.808,19.194 8.808,19.616C8.808,20.037 8.663,20.393 8.374,20.682C8.085,20.971 7.73,21.116 7.308,21.116ZM16.692,21.116C16.27,21.116 15.915,20.971 15.626,20.682C15.337,20.393 15.192,20.037 15.192,19.616C15.192,19.194 15.337,18.838 15.626,18.549C15.915,18.26 16.27,18.116 16.692,18.116C17.114,18.116 17.47,18.26 17.759,18.549C18.048,18.838 18.192,19.194 18.192,19.616C18.192,20.037 18.048,20.393 17.759,20.682C17.47,20.971 17.114,21.116 16.692,21.116ZM5.881,5.5L8.55,11.115L15.185,11.115C15.3,11.115 15.403,11.087 15.492,11.029C15.582,10.971 15.659,10.891 15.723,10.788L18.339,6.038C18.415,5.897 18.422,5.772 18.358,5.663C18.294,5.554 18.185,5.5 18.031,5.5L5.881,5.5ZM5.392,4.5L18.412,4.5C18.846,4.5 19.173,4.677 19.392,5.032C19.612,5.386 19.623,5.751 19.427,6.127L16.569,11.334C16.424,11.578 16.236,11.769 16.005,11.908C15.773,12.046 15.519,12.115 15.242,12.115L8.1,12.115L6.885,14.346C6.782,14.5 6.779,14.667 6.875,14.846C6.971,15.026 7.115,15.115 7.308,15.115L18.192,15.115L18.192,16.115L7.308,16.115C6.724,16.115 6.289,15.87 6.002,15.378C5.715,14.886 5.708,14.392 5.981,13.896L7.485,11.215L3.808,3.5L2,3.5L2,2.5L4.442,2.5L5.392,4.5ZM8.55,11.115L15.55,11.115L8.55,11.115Z" style="fill:white;fill-rule:nonzero;"/>
    </g>
</svg>
