<?xml version="1.0" encoding="UTF-8" standalone="no"?>
<!DOCTYPE svg PUBLIC "-//W3C//DTD SVG 1.1//EN" "http://www.w3.org/Graphics/SVG/1.1/DTD/svg11.dtd">
<svg width="50px" height="50px" viewBox="0 0 24 24" version="1.1" xmlns="http://www.w3.org/2000/svg" xmlns:xlink="http://www.w3.org/1999/xlink" xml:space="preserve" xmlns:serif="http://www.serif.com/" style="fill-rule:evenodd;clip-rule:evenodd;stroke-linejoin:round;stroke-miterlimit:2;">
    <g transform="matrix(1.33333,0,0,1.33333,-2.66667,-4)">
        <path d="M16.611,21C15.947,21 15.385,20.768 14.923,20.305C14.461,19.841 14.231,19.278 14.231,18.616C14.231,18.516 14.275,18.263 14.363,17.858L7.166,13.584C6.95,13.834 6.686,14.03 6.373,14.172C6.059,14.314 5.724,14.384 5.366,14.384C4.708,14.384 4.15,14.151 3.69,13.683C3.23,13.215 3,12.654 3,12C3,11.346 3.23,10.785 3.69,10.317C4.15,9.849 4.708,9.615 5.366,9.615C5.724,9.615 6.059,9.686 6.373,9.828C6.686,9.97 6.95,10.166 7.166,10.416L14.364,6.162C14.317,6.032 14.284,5.904 14.263,5.776C14.241,5.648 14.231,5.518 14.231,5.385C14.231,4.722 14.463,4.159 14.928,3.696C15.392,3.232 15.956,3 16.62,3C17.284,3 17.846,3.232 18.308,3.697C18.769,4.161 19,4.726 19,5.389C19,6.053 18.768,6.615 18.305,7.077C17.841,7.539 17.278,7.769 16.615,7.769C16.254,7.769 15.92,7.695 15.615,7.547C15.31,7.399 15.05,7.2 14.835,6.95L7.637,11.223C7.683,11.352 7.716,11.481 7.738,11.609C7.759,11.736 7.769,11.867 7.769,12C7.769,12.133 7.759,12.264 7.738,12.391C7.716,12.519 7.683,12.647 7.637,12.777L14.835,17.05C15.05,16.8 15.31,16.601 15.616,16.453C15.92,16.305 16.254,16.231 16.616,16.231C17.278,16.231 17.841,16.463 18.305,16.928C18.768,17.392 19,17.956 19,18.62C19,19.284 18.768,19.846 18.303,20.308C17.839,20.769 17.274,21 16.611,21ZM16.616,20C17.008,20 17.337,19.867 17.602,19.602C17.867,19.337 18,19.008 18,18.616C18,18.223 17.867,17.894 17.602,17.629C17.337,17.363 17.008,17.231 16.616,17.231C16.223,17.231 15.894,17.363 15.629,17.629C15.363,17.894 15.231,18.223 15.231,18.616C15.231,19.008 15.363,19.337 15.629,19.602C15.894,19.867 16.223,20 16.616,20ZM5.366,13.384C5.763,13.384 6.097,13.252 6.366,12.987C6.635,12.721 6.769,12.392 6.769,12C6.769,11.608 6.635,11.279 6.366,11.013C6.096,10.748 5.763,10.615 5.366,10.615C4.979,10.615 4.654,10.748 4.393,11.013C4.131,11.279 4,11.608 4,12C4,12.392 4.131,12.721 4.393,12.987C4.654,13.252 4.979,13.384 5.366,13.384ZM16.616,6.769C17.008,6.769 17.337,6.637 17.602,6.371C17.867,6.106 18,5.777 18,5.384C18,4.992 17.867,4.663 17.602,4.398C17.337,4.133 17.008,4 16.616,4C16.223,4 15.894,4.133 15.629,4.398C15.363,4.663 15.231,4.992 15.231,5.384C15.231,5.777 15.363,6.106 15.629,6.371C15.894,6.637 16.223,6.769 16.616,6.769Z" style="fill:white;fill-rule:nonzero;"/>
    </g>
</svg>
